<svg width="129" height="48" viewBox="0 0 129 48" fill="none" xmlns="http://www.w3.org/2000/svg">
<g clip-path="url(#clip0_29412_417)">
<path d="M26.376 16.7003C21.7484 16.7003 18.1325 20.4054 18.1325 25.3654C18.1325 30.3254 21.657 33.9988 26.376 33.9988C31.095 33.9988 34.6808 30.262 34.6808 25.3337C34.6808 20.4371 31.1563 16.7003 26.376 16.7003ZM26.4072 30.4242C23.7719 30.4242 21.8408 28.2656 21.8408 25.3666C21.8408 22.4348 23.7407 20.2774 26.376 20.2774C29.0425 20.2774 30.9725 22.4677 30.9725 25.3666C30.9725 28.2656 29.0425 30.4242 26.4072 30.4242ZM35.6915 20.47H37.9901V33.678H41.6673V17.0223H35.6915V20.47ZM8.87832 20.2761C10.8094 20.2761 12.3415 21.5323 12.9232 23.4007H16.8154C16.1101 19.4066 12.9845 16.7003 8.90953 16.7003C4.28187 16.7003 0.666016 20.4054 0.666016 25.3666C0.666016 30.3279 4.19053 34 8.90953 34C12.8931 34 16.08 31.2938 16.7853 27.2667H12.9232C12.3716 29.1351 10.8395 30.4242 8.9084 30.4242C6.24187 30.4242 4.37321 28.2656 4.37321 25.3666C4.37439 22.4348 6.21297 20.2761 8.87832 20.2761ZM105.56 23.7556L102.863 23.3373C101.576 23.1446 100.657 22.6933 100.657 21.6299C100.657 20.47 101.852 19.8907 103.476 19.8907C105.253 19.8907 106.388 20.6957 106.633 22.0165H110.187C109.788 18.6663 107.337 16.7016 103.568 16.7016C99.6761 16.7016 97.1023 18.7956 97.1023 21.7591C97.1023 24.5934 98.7879 26.2374 102.189 26.7521L104.885 27.1704C106.204 27.3631 106.939 27.9119 106.939 28.9424C106.939 30.2632 105.652 30.8108 103.875 30.8108C101.699 30.8108 100.473 29.8766 100.289 28.4595H96.6731C97.0109 31.7133 99.4312 34 103.844 34C107.859 34 110.524 32.067 110.524 28.7485C110.524 25.7849 108.594 24.2385 105.56 23.7556ZM39.8287 10.161C38.4804 10.161 37.4689 11.1915 37.4689 12.6087C37.4689 14.0258 38.4793 15.0563 39.8287 15.0563C41.1769 15.0563 42.1889 14.0258 42.1889 12.6087C42.1889 11.1915 41.1769 10.161 39.8287 10.161ZM93.7928 22.725C93.7928 19.1175 91.7092 16.7016 87.2964 16.7016C83.1289 16.7016 80.8 18.9249 80.34 22.3396H83.9869C84.1707 21.0189 85.1513 19.9237 87.2352 19.9237C89.1051 19.9237 90.0242 20.7932 90.0242 21.8567C90.0242 23.2422 88.3382 23.5958 86.2546 23.8215C83.4354 24.1434 79.9421 25.1739 79.9421 29.04C79.9421 32.0365 82.0569 33.9683 85.428 33.9683C88.063 33.9683 89.7177 32.8085 90.5458 30.9718C90.6685 32.6146 91.8329 33.678 93.4575 33.678H95.6025V30.2315H93.7938V22.725H93.7928ZM90.1768 26.9131C90.1768 29.1363 88.3382 30.7791 86.1007 30.7791C84.7215 30.7791 83.557 30.1669 83.557 28.879C83.557 27.2362 85.4265 26.785 87.1428 26.5923C88.7976 26.4313 89.7167 26.0447 90.1768 25.3032V26.9131ZM70.6568 16.7003C68.6031 16.7003 66.8872 17.6028 65.6616 19.1163V10H61.9844V33.678H65.6V31.4877C66.8256 33.0658 68.5732 34 70.6568 34C75.0692 34 78.41 30.3279 78.41 25.3666C78.41 20.4054 75.008 16.7003 70.6568 16.7003ZM70.1053 30.4242C67.4699 30.4242 65.5389 28.2656 65.5389 25.3666C65.5389 22.4677 67.5001 20.2774 70.1352 20.2774C72.8018 20.2774 74.6703 22.436 74.6703 25.3666C74.6703 28.2656 72.7403 30.4242 70.1053 30.4242ZM53.189 16.7003C50.799 16.7003 49.2356 17.7309 48.3165 19.1809V17.0223H44.6692V33.6768H48.3464V24.6252C48.3464 22.0799 49.8784 20.2761 52.1462 20.2761C54.261 20.2761 55.578 21.8543 55.578 24.1422V33.678H59.2552V23.8531C59.2566 19.6639 57.204 16.7003 53.189 16.7003ZM128.053 24.8191C128.053 20.0517 124.743 16.7016 120.299 16.7016C115.58 16.7016 112.117 20.4383 112.117 25.3666C112.117 30.5535 115.825 34 120.361 34C124.192 34 127.195 31.6157 127.96 28.2339H124.129C123.578 29.7156 122.229 30.5535 120.421 30.5535C118.061 30.5535 116.283 29.0071 115.886 26.3008H128.052V24.8191H128.053ZM116.101 23.53C116.684 21.2103 118.338 20.0835 120.238 20.0835C122.322 20.0835 123.915 21.3396 124.283 23.53H116.101Z" fill="white"/>
</g>
<defs>
<clipPath id="clip0_29412_417">
<rect width="128" height="48" fill="white" transform="translate(0.666016)"/>
</clipPath>
</defs>
</svg>
