<svg width="2070" height="894" viewBox="0 0 2070 894" fill="none" xmlns="http://www.w3.org/2000/svg">
<g style="mix-blend-mode:overlay">
<path d="M47.0455 894H0V846.947M47.0455 894V846.947M47.0455 894H94.0909M47.0455 846.947H0M47.0455 846.947V799.895M47.0455 846.947H94.0909M0 846.947V799.895M47.0455 799.895H0M47.0455 799.895V752.842M47.0455 799.895H94.0909M0 799.895V752.842M47.0455 752.842H0M47.0455 752.842V705.789M47.0455 752.842H94.0909M0 752.842V705.789M47.0455 705.789H0M47.0455 705.789V658.737M47.0455 705.789H94.0909M0 705.789V658.737M47.0455 658.737H0M47.0455 658.737V611.684M47.0455 658.737H94.0909M0 658.737V611.684M47.0455 611.684H0M47.0455 611.684V564.632M47.0455 611.684H94.0909M0 611.684V564.632M47.0455 564.632H0M47.0455 564.632V517.579M47.0455 564.632H94.0909M0 564.632V517.579M47.0455 517.579H0M47.0455 517.579V470.526M47.0455 517.579H94.0909M0 517.579V470.526M47.0455 470.526H0M47.0455 470.526V423.474M47.0455 470.526H94.0909M0 470.526V423.474M47.0455 423.474H0M47.0455 423.474V376.421M47.0455 423.474H94.0909M0 423.474V376.421M47.0455 376.421H0M47.0455 376.421V329.368M47.0455 376.421H94.0909M0 376.421V329.368M47.0455 329.368H0M47.0455 329.368V282.316M47.0455 329.368H94.0909M0 329.368V282.316M47.0455 282.316H0M47.0455 282.316V235.263M47.0455 282.316H94.0909M0 282.316V235.263M47.0455 235.263H0M47.0455 235.263V188.211M47.0455 235.263H94.0909M0 235.263V188.211M47.0455 188.211H0M47.0455 188.211V141.158M47.0455 188.211H94.0909M0 188.211V141.158M47.0455 141.158H0M47.0455 141.158V94.1053M47.0455 141.158H94.0909M0 141.158V94.1053M47.0455 94.1053H0M47.0455 94.1053V47.0526M47.0455 94.1053H94.0909M0 94.1053V47.0526M47.0455 47.0526H0M47.0455 47.0526V3.8147e-06M47.0455 47.0526H94.0909M0 47.0526V3.8147e-06H47.0455M47.0455 3.8147e-06H94.0909M94.0909 894V846.947M94.0909 894H141.136M94.0909 846.947V799.895M94.0909 846.947H141.136M94.0909 799.895V752.842M94.0909 799.895H141.136M94.0909 752.842V705.789M94.0909 752.842H141.136M94.0909 705.789V658.737M94.0909 705.789H141.136M94.0909 658.737V611.684M94.0909 658.737H141.136M94.0909 611.684V564.632M94.0909 611.684H141.136M94.0909 564.632V517.579M94.0909 564.632H141.136M94.0909 517.579V470.526M94.0909 517.579H141.136M94.0909 470.526V423.474M94.0909 470.526H141.136M94.0909 423.474V376.421M94.0909 423.474H141.136M94.0909 376.421V329.368M94.0909 376.421H141.136M94.0909 329.368V282.316M94.0909 329.368H141.136M94.0909 282.316V235.263M94.0909 282.316H141.136M94.0909 235.263V188.211M94.0909 235.263H141.136M94.0909 188.211V141.158M94.0909 188.211H141.136M94.0909 141.158V94.1053M94.0909 141.158H141.136M94.0909 94.1053V47.0526M94.0909 94.1053H141.136M94.0909 47.0526V3.8147e-06M94.0909 47.0526H141.136M94.0909 3.8147e-06H141.136M141.136 894V846.947M141.136 894H188.182M141.136 846.947V799.895M141.136 846.947H188.182M141.136 799.895V752.842M141.136 799.895H188.182M141.136 752.842V705.789M141.136 752.842H188.182M141.136 705.789V658.737M141.136 705.789H188.182M141.136 658.737V611.684M141.136 658.737H188.182M141.136 611.684V564.632M141.136 611.684H188.182M141.136 564.632V517.579M141.136 564.632H188.182M141.136 517.579V470.526M141.136 517.579H188.182M141.136 470.526V423.474M141.136 470.526H188.182M141.136 423.474V376.421M141.136 423.474H188.182M141.136 376.421V329.368M141.136 376.421H188.182M141.136 329.368V282.316M141.136 329.368H188.182M141.136 282.316V235.263M141.136 282.316H188.182M141.136 235.263V188.211M141.136 235.263H188.182M141.136 188.211V141.158M141.136 188.211H188.182M141.136 141.158V94.1053M141.136 141.158H188.182M141.136 94.1053V47.0526M141.136 94.1053H188.182M141.136 47.0526V3.8147e-06M141.136 47.0526H188.182M141.136 3.8147e-06H188.182M188.182 894V846.947M188.182 894H235.227M188.182 846.947V799.895M188.182 846.947H235.227M188.182 799.895V752.842M188.182 799.895H235.227M188.182 752.842V705.789M188.182 752.842H235.227M188.182 705.789V658.737M188.182 705.789H235.227M188.182 658.737V611.684M188.182 658.737H235.227M188.182 611.684V564.632M188.182 611.684H235.227M188.182 564.632V517.579M188.182 564.632H235.227M188.182 517.579V470.526M188.182 517.579H235.227M188.182 470.526V423.474M188.182 470.526H235.227M188.182 423.474V376.421M188.182 423.474H235.227M188.182 376.421V329.368M188.182 376.421H235.227M188.182 329.368V282.316M188.182 329.368H235.227M188.182 282.316V235.263M188.182 282.316H235.227M188.182 235.263V188.211M188.182 235.263H235.227M188.182 188.211V141.158M188.182 188.211H235.227M188.182 141.158V94.1053M188.182 141.158H235.227M188.182 94.1053V47.0526M188.182 94.1053H235.227M188.182 47.0526V3.8147e-06M188.182 47.0526H235.227M188.182 3.8147e-06H235.227M235.227 894V846.947M235.227 894H282.273M235.227 846.947V799.895M235.227 846.947H282.273M235.227 799.895V752.842M235.227 799.895H282.273M235.227 752.842V705.789M235.227 752.842H282.273M235.227 705.789V658.737M235.227 705.789H282.273M235.227 658.737V611.684M235.227 658.737H282.273M235.227 611.684V564.632M235.227 611.684H282.273M235.227 564.632V517.579M235.227 564.632H282.273M235.227 517.579V470.526M235.227 517.579H282.273M235.227 470.526V423.474M235.227 470.526H282.273M235.227 423.474V376.421M235.227 423.474H282.273M235.227 376.421V329.368M235.227 376.421H282.273M235.227 329.368V282.316M235.227 329.368H282.273M235.227 282.316V235.263M235.227 282.316H282.273M235.227 235.263V188.211M235.227 235.263H282.273M235.227 188.211V141.158M235.227 188.211H282.273M235.227 141.158V94.1053M235.227 141.158H282.273M235.227 94.1053V47.0526M235.227 94.1053H282.273M235.227 47.0526V3.8147e-06M235.227 47.0526H282.273M235.227 3.8147e-06H282.273M282.273 894V846.947M282.273 894H329.318M282.273 846.947V799.895M282.273 846.947H329.318M282.273 799.895V752.842M282.273 799.895H329.318M282.273 752.842V705.789M282.273 752.842H329.318M282.273 705.789V658.737M282.273 705.789H329.318M282.273 658.737V611.684M282.273 658.737H329.318M282.273 611.684V564.632M282.273 611.684H329.318M282.273 564.632V517.579M282.273 564.632H329.318M282.273 517.579V470.526M282.273 517.579H329.318M282.273 470.526V423.474M282.273 470.526H329.318M282.273 423.474V376.421M282.273 423.474H329.318M282.273 376.421V329.368M282.273 376.421H329.318M282.273 329.368V282.316M282.273 329.368H329.318M282.273 282.316V235.263M282.273 282.316H329.318M282.273 235.263V188.211M282.273 235.263H329.318M282.273 188.211V141.158M282.273 188.211H329.318M282.273 141.158V94.1053M282.273 141.158H329.318M282.273 94.1053V47.0526M282.273 94.1053H329.318M282.273 47.0526V3.8147e-06M282.273 47.0526H329.318M282.273 3.8147e-06H329.318M329.318 894V846.947M329.318 894H376.364M329.318 846.947V799.895M329.318 846.947H376.364M329.318 799.895V752.842M329.318 799.895H376.364M329.318 752.842V705.789M329.318 752.842H376.364M329.318 705.789V658.737M329.318 705.789H376.364M329.318 658.737V611.684M329.318 658.737H376.364M329.318 611.684V564.632M329.318 611.684H376.364M329.318 564.632V517.579M329.318 564.632H376.364M329.318 517.579V470.526M329.318 517.579H376.364M329.318 470.526V423.474M329.318 470.526H376.364M329.318 423.474V376.421M329.318 423.474H376.364M329.318 376.421V329.368M329.318 376.421H376.364M329.318 329.368V282.316M329.318 329.368H376.364M329.318 282.316V235.263M329.318 282.316H376.364M329.318 235.263V188.211M329.318 235.263H376.364M329.318 188.211V141.158M329.318 188.211H376.364M329.318 141.158V94.1053M329.318 141.158H376.364M329.318 94.1053V47.0526M329.318 94.1053H376.364M329.318 47.0526V3.8147e-06M329.318 47.0526H376.364M329.318 3.8147e-06H376.364M376.364 894V846.947M376.364 894H423.409M376.364 846.947V799.895M376.364 846.947H423.409M376.364 799.895V752.842M376.364 799.895H423.409M376.364 752.842V705.789M376.364 752.842H423.409M376.364 705.789V658.737M376.364 705.789H423.409M376.364 658.737V611.684M376.364 658.737H423.409M376.364 611.684V564.632M376.364 611.684H423.409M376.364 564.632V517.579M376.364 564.632H423.409M376.364 517.579V470.526M376.364 517.579H423.409M376.364 470.526V423.474M376.364 470.526H423.409M376.364 423.474V376.421M376.364 423.474H423.409M376.364 376.421V329.368M376.364 376.421H423.409M376.364 329.368V282.316M376.364 329.368H423.409M376.364 282.316V235.263M376.364 282.316H423.409M376.364 235.263V188.211M376.364 235.263H423.409M376.364 188.211V141.158M376.364 188.211H423.409M376.364 141.158V94.1053M376.364 141.158H423.409M376.364 94.1053V47.0526M376.364 94.1053H423.409M376.364 47.0526V3.8147e-06M376.364 47.0526H423.409M376.364 3.8147e-06H423.409M423.409 894V846.947M423.409 894H470.455M423.409 846.947V799.895M423.409 846.947H470.455M423.409 799.895V752.842M423.409 799.895H470.455M423.409 752.842V705.789M423.409 752.842H470.455M423.409 705.789V658.737M423.409 705.789H470.455M423.409 658.737V611.684M423.409 658.737H470.455M423.409 611.684V564.632M423.409 611.684H470.455M423.409 564.632V517.579M423.409 564.632H470.455M423.409 517.579V470.526M423.409 517.579H470.455M423.409 470.526V423.474M423.409 470.526H470.455M423.409 423.474V376.421M423.409 423.474H470.455M423.409 376.421V329.368M423.409 376.421H470.455M423.409 329.368V282.316M423.409 329.368H470.455M423.409 282.316V235.263M423.409 282.316H470.455M423.409 235.263V188.211M423.409 235.263H470.455M423.409 188.211V141.158M423.409 188.211H470.455M423.409 141.158V94.1053M423.409 141.158H470.455M423.409 94.1053V47.0526M423.409 94.1053H470.455M423.409 47.0526V3.8147e-06M423.409 47.0526H470.455M423.409 3.8147e-06H470.455M470.455 894V846.947M470.455 894H517.5M470.455 846.947V799.895M470.455 846.947H517.5M470.455 799.895V752.842M470.455 799.895H517.5M470.455 752.842V705.789M470.455 752.842H517.5M470.455 705.789V658.737M470.455 705.789H517.5M470.455 658.737V611.684M470.455 658.737H517.5M470.455 611.684V564.632M470.455 611.684H517.5M470.455 564.632V517.579M470.455 564.632H517.5M470.455 517.579V470.526M470.455 517.579H517.5M470.455 470.526V423.474M470.455 470.526H517.5M470.455 423.474V376.421M470.455 423.474H517.5M470.455 376.421V329.368M470.455 376.421H517.5M470.455 329.368V282.316M470.455 329.368H517.5M470.455 282.316V235.263M470.455 282.316H517.5M470.455 235.263V188.211M470.455 235.263H517.5M470.455 188.211V141.158M470.455 188.211H517.5M470.455 141.158V94.1053M470.455 141.158H517.5M470.455 94.1053V47.0526M470.455 94.1053H517.5M470.455 47.0526V3.8147e-06M470.455 47.0526H517.5M470.455 3.8147e-06H517.5M517.5 894V846.947M517.5 894H564.545M517.5 846.947V799.895M517.5 846.947H564.545M517.5 799.895V752.842M517.5 799.895H564.545M517.5 752.842V705.789M517.5 752.842H564.545M517.5 705.789V658.737M517.5 705.789H564.545M517.5 658.737V611.684M517.5 658.737H564.545M517.5 611.684V564.632M517.5 611.684H564.545M517.5 564.632V517.579M517.5 564.632H564.545M517.5 517.579V470.526M517.5 517.579H564.545M517.5 470.526V423.474M517.5 470.526H564.545M517.5 423.474V376.421M517.5 423.474H564.545M517.5 376.421V329.368M517.5 376.421H564.545M517.5 329.368V282.316M517.5 329.368H564.545M517.5 282.316V235.263M517.5 282.316H564.545M517.5 235.263V188.211M517.5 235.263H564.545M517.5 188.211V141.158M517.5 188.211H564.545M517.5 141.158V94.1053M517.5 141.158H564.545M517.5 94.1053V47.0526M517.5 94.1053H564.545M517.5 47.0526V3.8147e-06M517.5 47.0526H564.545M517.5 3.8147e-06H564.545M564.545 894V846.947M564.545 894H611.591M564.545 846.947V799.895M564.545 846.947H611.591M564.545 799.895V752.842M564.545 799.895H611.591M564.545 752.842V705.789M564.545 752.842H611.591M564.545 705.789V658.737M564.545 705.789H611.591M564.545 658.737V611.684M564.545 658.737H611.591M564.545 611.684V564.632M564.545 611.684H611.591M564.545 564.632V517.579M564.545 564.632H611.591M564.545 517.579V470.526M564.545 517.579H611.591M564.545 470.526V423.474M564.545 470.526H611.591M564.545 423.474V376.421M564.545 423.474H611.591M564.545 376.421V329.368M564.545 376.421H611.591M564.545 329.368V282.316M564.545 329.368H611.591M564.545 282.316V235.263M564.545 282.316H611.591M564.545 235.263V188.211M564.545 235.263H611.591M564.545 188.211V141.158M564.545 188.211H611.591M564.545 141.158V94.1053M564.545 141.158H611.591M564.545 94.1053V47.0526M564.545 94.1053H611.591M564.545 47.0526V3.8147e-06M564.545 47.0526H611.591M564.545 3.8147e-06H611.591M611.591 894V846.947M611.591 894H658.636M611.591 846.947V799.895M611.591 846.947H658.636M611.591 799.895V752.842M611.591 799.895H658.636M611.591 752.842V705.789M611.591 752.842H658.636M611.591 705.789V658.737M611.591 705.789H658.636M611.591 658.737V611.684M611.591 658.737H658.636M611.591 611.684V564.632M611.591 611.684H658.636M611.591 564.632V517.579M611.591 564.632H658.636M611.591 517.579V470.526M611.591 517.579H658.636M611.591 470.526V423.474M611.591 470.526H658.636M611.591 423.474V376.421M611.591 423.474H658.636M611.591 376.421V329.368M611.591 376.421H658.636M611.591 329.368V282.316M611.591 329.368H658.636M611.591 282.316V235.263M611.591 282.316H658.636M611.591 235.263V188.211M611.591 235.263H658.636M611.591 188.211V141.158M611.591 188.211H658.636M611.591 141.158V94.1053M611.591 141.158H658.636M611.591 94.1053V47.0526M611.591 94.1053H658.636M611.591 47.0526V3.8147e-06M611.591 47.0526H658.636M611.591 3.8147e-06H658.636M658.636 894V846.947M658.636 894H705.682M658.636 846.947V799.895M658.636 846.947H705.682M658.636 799.895V752.842M658.636 799.895H705.682M658.636 752.842V705.789M658.636 752.842H705.682M658.636 705.789V658.737M658.636 705.789H705.682M658.636 658.737V611.684M658.636 658.737H705.682M658.636 611.684V564.632M658.636 611.684H705.682M658.636 564.632V517.579M658.636 564.632H705.682M658.636 517.579V470.526M658.636 517.579H705.682M658.636 470.526V423.474M658.636 470.526H705.682M658.636 423.474V376.421M658.636 423.474H705.682M658.636 376.421V329.368M658.636 376.421H705.682M658.636 329.368V282.316M658.636 329.368H705.682M658.636 282.316V235.263M658.636 282.316H705.682M658.636 235.263V188.211M658.636 235.263H705.682M658.636 188.211V141.158M658.636 188.211H705.682M658.636 141.158V94.1053M658.636 141.158H705.682M658.636 94.1053V47.0526M658.636 94.1053H705.682M658.636 47.0526V3.8147e-06M658.636 47.0526H705.682M658.636 3.8147e-06H705.682M705.682 894V846.947M705.682 894H752.727M705.682 846.947V799.895M705.682 846.947H752.727M705.682 799.895V752.842M705.682 799.895H752.727M705.682 752.842V705.789M705.682 752.842H752.727M705.682 705.789V658.737M705.682 705.789H752.727M705.682 658.737V611.684M705.682 658.737H752.727M705.682 611.684V564.632M705.682 611.684H752.727M705.682 564.632V517.579M705.682 564.632H752.727M705.682 517.579V470.526M705.682 517.579H752.727M705.682 470.526V423.474M705.682 470.526H752.727M705.682 423.474V376.421M705.682 423.474H752.727M705.682 376.421V329.368M705.682 376.421H752.727M705.682 329.368V282.316M705.682 329.368H752.727M705.682 282.316V235.263M705.682 282.316H752.727M705.682 235.263V188.211M705.682 235.263H752.727M705.682 188.211V141.158M705.682 188.211H752.727M705.682 141.158V94.1053M705.682 141.158H752.727M705.682 94.1053V47.0526M705.682 94.1053H752.727M705.682 47.0526V3.8147e-06M705.682 47.0526H752.727M705.682 3.8147e-06H752.727M752.727 894V846.947M752.727 894H799.773M752.727 846.947V799.895M752.727 846.947H799.773M752.727 799.895V752.842M752.727 799.895H799.773M752.727 752.842V705.789M752.727 752.842H799.773M752.727 705.789V658.737M752.727 705.789H799.773M752.727 658.737V611.684M752.727 658.737H799.773M752.727 611.684V564.632M752.727 611.684H799.773M752.727 564.632V517.579M752.727 564.632H799.773M752.727 517.579V470.526M752.727 517.579H799.773M752.727 470.526V423.474M752.727 470.526H799.773M752.727 423.474V376.421M752.727 423.474H799.773M752.727 376.421V329.368M752.727 376.421H799.773M752.727 329.368V282.316M752.727 329.368H799.773M752.727 282.316V235.263M752.727 282.316H799.773M752.727 235.263V188.211M752.727 235.263H799.773M752.727 188.211V141.158M752.727 188.211H799.773M752.727 141.158V94.1053M752.727 141.158H799.773M752.727 94.1053V47.0526M752.727 94.1053H799.773M752.727 47.0526V3.8147e-06M752.727 47.0526H799.773M752.727 3.8147e-06H799.773M799.773 894V846.947M799.773 894H846.818M799.773 846.947V799.895M799.773 846.947H846.818M799.773 799.895V752.842M799.773 799.895H846.818M799.773 752.842V705.789M799.773 752.842H846.818M799.773 705.789V658.737M799.773 705.789H846.818M799.773 658.737V611.684M799.773 658.737H846.818M799.773 611.684V564.632M799.773 611.684H846.818M799.773 564.632V517.579M799.773 564.632H846.818M799.773 517.579V470.526M799.773 517.579H846.818M799.773 470.526V423.474M799.773 470.526H846.818M799.773 423.474V376.421M799.773 423.474H846.818M799.773 376.421V329.368M799.773 376.421H846.818M799.773 329.368V282.316M799.773 329.368H846.818M799.773 282.316V235.263M799.773 282.316H846.818M799.773 235.263V188.211M799.773 235.263H846.818M799.773 188.211V141.158M799.773 188.211H846.818M799.773 141.158V94.1053M799.773 141.158H846.818M799.773 94.1053V47.0526M799.773 94.1053H846.818M799.773 47.0526V3.8147e-06M799.773 47.0526H846.818M799.773 3.8147e-06H846.818M846.818 894V846.947M846.818 894H893.864M846.818 846.947V799.895M846.818 846.947H893.864M846.818 799.895V752.842M846.818 799.895H893.864M846.818 752.842V705.789M846.818 752.842H893.864M846.818 705.789V658.737M846.818 705.789H893.864M846.818 658.737V611.684M846.818 658.737H893.864M846.818 611.684V564.632M846.818 611.684H893.864M846.818 564.632V517.579M846.818 564.632H893.864M846.818 517.579V470.526M846.818 517.579H893.864M846.818 470.526V423.474M846.818 470.526H893.864M846.818 423.474V376.421M846.818 423.474H893.864M846.818 376.421V329.368M846.818 376.421H893.864M846.818 329.368V282.316M846.818 329.368H893.864M846.818 282.316V235.263M846.818 282.316H893.864M846.818 235.263V188.211M846.818 235.263H893.864M846.818 188.211V141.158M846.818 188.211H893.864M846.818 141.158V94.1053M846.818 141.158H893.864M846.818 94.1053V47.0526M846.818 94.1053H893.864M846.818 47.0526V3.8147e-06M846.818 47.0526H893.864M846.818 3.8147e-06H893.864M893.864 894V846.947M893.864 894H940.909M893.864 846.947V799.895M893.864 846.947H940.909M893.864 799.895V752.842M893.864 799.895H940.909M893.864 752.842V705.789M893.864 752.842H940.909M893.864 705.789V658.737M893.864 705.789H940.909M893.864 658.737V611.684M893.864 658.737H940.909M893.864 611.684V564.632M893.864 611.684H940.909M893.864 564.632V517.579M893.864 564.632H940.909M893.864 517.579V470.526M893.864 517.579H940.909M893.864 470.526V423.474M893.864 470.526H940.909M893.864 423.474V376.421M893.864 423.474H940.909M893.864 376.421V329.368M893.864 376.421H940.909M893.864 329.368V282.316M893.864 329.368H940.909M893.864 282.316V235.263M893.864 282.316H940.909M893.864 235.263V188.211M893.864 235.263H940.909M893.864 188.211V141.158M893.864 188.211H940.909M893.864 141.158V94.1053M893.864 141.158H940.909M893.864 94.1053V47.0526M893.864 94.1053H940.909M893.864 47.0526V3.8147e-06M893.864 47.0526H940.909M893.864 3.8147e-06H940.909M940.909 894V846.947M940.909 894H987.955M940.909 846.947V799.895M940.909 846.947H987.955M940.909 799.895V752.842M940.909 799.895H987.955M940.909 752.842V705.789M940.909 752.842H987.955M940.909 705.789V658.737M940.909 705.789H987.955M940.909 658.737V611.684M940.909 658.737H987.955M940.909 611.684V564.632M940.909 611.684H987.955M940.909 564.632V517.579M940.909 564.632H987.955M940.909 517.579V470.526M940.909 517.579H987.955M940.909 470.526V423.474M940.909 470.526H987.955M940.909 423.474V376.421M940.909 423.474H987.955M940.909 376.421V329.368M940.909 376.421H987.955M940.909 329.368V282.316M940.909 329.368H987.955M940.909 282.316V235.263M940.909 282.316H987.955M940.909 235.263V188.211M940.909 235.263H987.955M940.909 188.211V141.158M940.909 188.211H987.955M940.909 141.158V94.1053M940.909 141.158H987.955M940.909 94.1053V47.0526M940.909 94.1053H987.955M940.909 47.0526V3.8147e-06M940.909 47.0526H987.955M940.909 3.8147e-06H987.955M987.955 894V846.947M987.955 894H1035M987.955 846.947V799.895M987.955 846.947H1035M987.955 799.895V752.842M987.955 799.895H1035M987.955 752.842V705.789M987.955 752.842H1035M987.955 705.789V658.737M987.955 705.789H1035M987.955 658.737V611.684M987.955 658.737H1035M987.955 611.684V564.632M987.955 611.684H1035M987.955 564.632V517.579M987.955 564.632H1035M987.955 517.579V470.526M987.955 517.579H1035M987.955 470.526V423.474M987.955 470.526H1035M987.955 423.474V376.421M987.955 423.474H1035M987.955 376.421V329.368M987.955 376.421H1035M987.955 329.368V282.316M987.955 329.368H1035M987.955 282.316V235.263M987.955 282.316H1035M987.955 235.263V188.211M987.955 235.263H1035M987.955 188.211V141.158M987.955 188.211H1035M987.955 141.158V94.1053M987.955 141.158H1035M987.955 94.1053V47.0526M987.955 94.1053H1035M987.955 47.0526V3.8147e-06M987.955 47.0526H1035M987.955 3.8147e-06H1035M1035 894V846.947M1035 894H1082.05M1035 846.947V799.895M1035 846.947H1082.05M1035 799.895V752.842M1035 799.895H1082.05M1035 752.842V705.789M1035 752.842H1082.05M1035 705.789V658.737M1035 705.789H1082.05M1035 658.737V611.684M1035 658.737H1082.05M1035 611.684V564.632M1035 611.684H1082.05M1035 564.632V517.579M1035 564.632H1082.05M1035 517.579V470.526M1035 517.579H1082.05M1035 470.526V423.474M1035 470.526H1082.05M1035 423.474V376.421M1035 423.474H1082.05M1035 376.421V329.368M1035 376.421H1082.05M1035 329.368V282.316M1035 329.368H1082.05M1035 282.316V235.263M1035 282.316H1082.05M1035 235.263V188.211M1035 235.263H1082.05M1035 188.211V141.158M1035 188.211H1082.05M1035 141.158V94.1053M1035 141.158H1082.05M1035 94.1053V47.0526M1035 94.1053H1082.05M1035 47.0526V3.8147e-06M1035 47.0526H1082.05M1035 3.8147e-06H1082.05M1082.05 894V846.947M1082.05 894H1129.09M1082.05 846.947V799.895M1082.05 846.947H1129.09M1082.05 799.895V752.842M1082.05 799.895H1129.09M1082.05 752.842V705.789M1082.05 752.842H1129.09M1082.05 705.789V658.737M1082.05 705.789H1129.09M1082.05 658.737V611.684M1082.05 658.737H1129.09M1082.05 611.684V564.632M1082.05 611.684H1129.09M1082.05 564.632V517.579M1082.05 564.632H1129.09M1082.05 517.579V470.526M1082.05 517.579H1129.09M1082.05 470.526V423.474M1082.05 470.526H1129.09M1082.05 423.474V376.421M1082.05 423.474H1129.09M1082.05 376.421V329.368M1082.05 376.421H1129.09M1082.05 329.368V282.316M1082.05 329.368H1129.09M1082.05 282.316V235.263M1082.05 282.316H1129.09M1082.05 235.263V188.211M1082.05 235.263H1129.09M1082.05 188.211V141.158M1082.05 188.211H1129.09M1082.05 141.158V94.1053M1082.05 141.158H1129.09M1082.05 94.1053V47.0526M1082.05 94.1053H1129.09M1082.05 47.0526V3.8147e-06M1082.05 47.0526H1129.09M1082.05 3.8147e-06H1129.09M1129.09 894V846.947M1129.09 894H1176.14M1129.09 846.947V799.895M1129.09 846.947H1176.14M1129.09 799.895V752.842M1129.09 799.895H1176.14M1129.09 752.842V705.789M1129.09 752.842H1176.14M1129.09 705.789V658.737M1129.09 705.789H1176.14M1129.09 658.737V611.684M1129.09 658.737H1176.14M1129.09 611.684V564.632M1129.09 611.684H1176.14M1129.09 564.632V517.579M1129.09 564.632H1176.14M1129.09 517.579V470.526M1129.09 517.579H1176.14M1129.09 470.526V423.474M1129.09 470.526H1176.14M1129.09 423.474V376.421M1129.09 423.474H1176.14M1129.09 376.421V329.368M1129.09 376.421H1176.14M1129.09 329.368V282.316M1129.09 329.368H1176.14M1129.09 282.316V235.263M1129.09 282.316H1176.14M1129.09 235.263V188.211M1129.09 235.263H1176.14M1129.09 188.211V141.158M1129.09 188.211H1176.14M1129.09 141.158V94.1053M1129.09 141.158H1176.14M1129.09 94.1053V47.0526M1129.09 94.1053H1176.14M1129.09 47.0526V3.8147e-06M1129.09 47.0526H1176.14M1129.09 3.8147e-06H1176.14M1176.14 894V846.947M1176.14 894H1223.18M1176.14 846.947V799.895M1176.14 846.947H1223.18M1176.14 799.895V752.842M1176.14 799.895H1223.18M1176.14 752.842V705.789M1176.14 752.842H1223.18M1176.14 705.789V658.737M1176.14 705.789H1223.18M1176.14 658.737V611.684M1176.14 658.737H1223.18M1176.14 611.684V564.632M1176.14 611.684H1223.18M1176.14 564.632V517.579M1176.14 564.632H1223.18M1176.14 517.579V470.526M1176.14 517.579H1223.18M1176.14 470.526V423.474M1176.14 470.526H1223.18M1176.14 423.474V376.421M1176.14 423.474H1223.18M1176.14 376.421V329.368M1176.14 376.421H1223.18M1176.14 329.368V282.316M1176.14 329.368H1223.18M1176.14 282.316V235.263M1176.14 282.316H1223.18M1176.14 235.263V188.211M1176.14 235.263H1223.18M1176.14 188.211V141.158M1176.14 188.211H1223.18M1176.14 141.158V94.1053M1176.14 141.158H1223.18M1176.14 94.1053V47.0526M1176.14 94.1053H1223.18M1176.14 47.0526V3.8147e-06M1176.14 47.0526H1223.18M1176.14 3.8147e-06H1223.18M1223.18 894V846.947M1223.18 894H1270.23M1223.18 846.947V799.895M1223.18 846.947H1270.23M1223.18 799.895V752.842M1223.18 799.895H1270.23M1223.18 752.842V705.789M1223.18 752.842H1270.23M1223.18 705.789V658.737M1223.18 705.789H1270.23M1223.18 658.737V611.684M1223.18 658.737H1270.23M1223.18 611.684V564.632M1223.18 611.684H1270.23M1223.18 564.632V517.579M1223.18 564.632H1270.23M1223.18 517.579V470.526M1223.18 517.579H1270.23M1223.18 470.526V423.474M1223.18 470.526H1270.23M1223.18 423.474V376.421M1223.18 423.474H1270.23M1223.18 376.421V329.368M1223.18 376.421H1270.23M1223.18 329.368V282.316M1223.18 329.368H1270.23M1223.18 282.316V235.263M1223.18 282.316H1270.23M1223.18 235.263V188.211M1223.18 235.263H1270.23M1223.18 188.211V141.158M1223.18 188.211H1270.23M1223.18 141.158V94.1053M1223.18 141.158H1270.23M1223.18 94.1053V47.0526M1223.18 94.1053H1270.23M1223.18 47.0526V3.8147e-06M1223.18 47.0526H1270.23M1223.18 3.8147e-06H1270.23M1270.23 894V846.947M1270.23 894H1317.27M1270.23 846.947V799.895M1270.23 846.947H1317.27M1270.23 799.895V752.842M1270.23 799.895H1317.27M1270.23 752.842V705.789M1270.23 752.842H1317.27M1270.23 705.789V658.737M1270.23 705.789H1317.27M1270.23 658.737V611.684M1270.23 658.737H1317.27M1270.23 611.684V564.632M1270.23 611.684H1317.27M1270.23 564.632V517.579M1270.23 564.632H1317.27M1270.23 517.579V470.526M1270.23 517.579H1317.27M1270.23 470.526V423.474M1270.23 470.526H1317.27M1270.23 423.474V376.421M1270.23 423.474H1317.27M1270.23 376.421V329.368M1270.23 376.421H1317.27M1270.23 329.368V282.316M1270.23 329.368H1317.27M1270.23 282.316V235.263M1270.23 282.316H1317.27M1270.23 235.263V188.211M1270.23 235.263H1317.27M1270.23 188.211V141.158M1270.23 188.211H1317.27M1270.23 141.158V94.1053M1270.23 141.158H1317.27M1270.23 94.1053V47.0526M1270.23 94.1053H1317.27M1270.23 47.0526V3.8147e-06M1270.23 47.0526H1317.27M1270.23 3.8147e-06H1317.27M1317.27 894V846.947M1317.27 894H1364.32M1317.27 846.947V799.895M1317.27 846.947H1364.32M1317.27 799.895V752.842M1317.27 799.895H1364.32M1317.27 752.842V705.789M1317.27 752.842H1364.32M1317.27 705.789V658.737M1317.27 705.789H1364.32M1317.27 658.737V611.684M1317.27 658.737H1364.32M1317.27 611.684V564.632M1317.27 611.684H1364.32M1317.27 564.632V517.579M1317.27 564.632H1364.32M1317.27 517.579V470.526M1317.27 517.579H1364.32M1317.27 470.526V423.474M1317.27 470.526H1364.32M1317.27 423.474V376.421M1317.27 423.474H1364.32M1317.27 376.421V329.368M1317.27 376.421H1364.32M1317.27 329.368V282.316M1317.27 329.368H1364.32M1317.27 282.316V235.263M1317.27 282.316H1364.32M1317.27 235.263V188.211M1317.27 235.263H1364.32M1317.27 188.211V141.158M1317.27 188.211H1364.32M1317.27 141.158V94.1053M1317.27 141.158H1364.32M1317.27 94.1053V47.0526M1317.27 94.1053H1364.32M1317.27 47.0526V3.8147e-06M1317.27 47.0526H1364.32M1317.27 3.8147e-06H1364.32M1364.32 894V846.947M1364.32 894H1411.36M1364.32 846.947V799.895M1364.32 846.947H1411.36M1364.32 799.895V752.842M1364.32 799.895H1411.36M1364.32 752.842V705.789M1364.32 752.842H1411.36M1364.32 705.789V658.737M1364.32 705.789H1411.36M1364.32 658.737V611.684M1364.32 658.737H1411.36M1364.32 611.684V564.632M1364.32 611.684H1411.36M1364.32 564.632V517.579M1364.32 564.632H1411.36M1364.32 517.579V470.526M1364.32 517.579H1411.36M1364.32 470.526V423.474M1364.32 470.526H1411.36M1364.32 423.474V376.421M1364.32 423.474H1411.36M1364.32 376.421V329.368M1364.32 376.421H1411.36M1364.32 329.368V282.316M1364.32 329.368H1411.36M1364.32 282.316V235.263M1364.32 282.316H1411.36M1364.32 235.263V188.211M1364.32 235.263H1411.36M1364.32 188.211V141.158M1364.32 188.211H1411.36M1364.32 141.158V94.1053M1364.32 141.158H1411.36M1364.32 94.1053V47.0526M1364.32 94.1053H1411.36M1364.32 47.0526V3.8147e-06M1364.32 47.0526H1411.36M1364.32 3.8147e-06H1411.36M1411.36 894V846.947M1411.36 894H1458.41M1411.36 846.947V799.895M1411.36 846.947H1458.41M1411.36 799.895V752.842M1411.36 799.895H1458.41M1411.36 752.842V705.789M1411.36 752.842H1458.41M1411.36 705.789V658.737M1411.36 705.789H1458.41M1411.36 658.737V611.684M1411.36 658.737H1458.41M1411.36 611.684V564.632M1411.36 611.684H1458.41M1411.36 564.632V517.579M1411.36 564.632H1458.41M1411.36 517.579V470.526M1411.36 517.579H1458.41M1411.36 470.526V423.474M1411.36 470.526H1458.41M1411.36 423.474V376.421M1411.36 423.474H1458.41M1411.36 376.421V329.368M1411.36 376.421H1458.41M1411.36 329.368V282.316M1411.36 329.368H1458.41M1411.36 282.316V235.263M1411.36 282.316H1458.41M1411.36 235.263V188.211M1411.36 235.263H1458.41M1411.36 188.211V141.158M1411.36 188.211H1458.41M1411.36 141.158V94.1053M1411.36 141.158H1458.41M1411.36 94.1053V47.0526M1411.36 94.1053H1458.41M1411.36 47.0526V3.8147e-06M1411.36 47.0526H1458.41M1411.36 3.8147e-06H1458.41M1458.41 894V846.947M1458.41 894H1505.45M1458.41 846.947V799.895M1458.41 846.947H1505.45M1458.41 799.895V752.842M1458.41 799.895H1505.45M1458.41 752.842V705.789M1458.41 752.842H1505.45M1458.41 705.789V658.737M1458.41 705.789H1505.45M1458.41 658.737V611.684M1458.41 658.737H1505.45M1458.41 611.684V564.632M1458.41 611.684H1505.45M1458.41 564.632V517.579M1458.41 564.632H1505.45M1458.41 517.579V470.526M1458.41 517.579H1505.45M1458.41 470.526V423.474M1458.41 470.526H1505.45M1458.41 423.474V376.421M1458.41 423.474H1505.45M1458.41 376.421V329.368M1458.41 376.421H1505.45M1458.41 329.368V282.316M1458.41 329.368H1505.45M1458.41 282.316V235.263M1458.41 282.316H1505.45M1458.41 235.263V188.211M1458.41 235.263H1505.45M1458.41 188.211V141.158M1458.41 188.211H1505.45M1458.41 141.158V94.1053M1458.41 141.158H1505.45M1458.41 94.1053V47.0526M1458.41 94.1053H1505.45M1458.41 47.0526V3.8147e-06M1458.41 47.0526H1505.45M1458.41 3.8147e-06H1505.45M1505.45 894V846.947M1505.45 894H1552.5M1505.45 846.947V799.895M1505.45 846.947H1552.5M1505.45 799.895V752.842M1505.45 799.895H1552.5M1505.45 752.842V705.789M1505.45 752.842H1552.5M1505.45 705.789V658.737M1505.45 705.789H1552.5M1505.45 658.737V611.684M1505.45 658.737H1552.5M1505.45 611.684V564.632M1505.45 611.684H1552.5M1505.45 564.632V517.579M1505.45 564.632H1552.5M1505.45 517.579V470.526M1505.45 517.579H1552.5M1505.45 470.526V423.474M1505.45 470.526H1552.5M1505.45 423.474V376.421M1505.45 423.474H1552.5M1505.45 376.421V329.368M1505.45 376.421H1552.5M1505.45 329.368V282.316M1505.45 329.368H1552.5M1505.45 282.316V235.263M1505.45 282.316H1552.5M1505.45 235.263V188.211M1505.45 235.263H1552.5M1505.45 188.211V141.158M1505.45 188.211H1552.5M1505.45 141.158V94.1053M1505.45 141.158H1552.5M1505.45 94.1053V47.0526M1505.45 94.1053H1552.5M1505.45 47.0526V3.8147e-06M1505.45 47.0526H1552.5M1505.45 3.8147e-06H1552.5M1552.5 894V846.947M1552.5 894H1599.55M1552.5 846.947V799.895M1552.5 846.947H1599.55M1552.5 799.895V752.842M1552.5 799.895H1599.55M1552.5 752.842V705.789M1552.5 752.842H1599.55M1552.5 705.789V658.737M1552.5 705.789H1599.55M1552.5 658.737V611.684M1552.5 658.737H1599.55M1552.5 611.684V564.632M1552.5 611.684H1599.55M1552.5 564.632V517.579M1552.5 564.632H1599.55M1552.5 517.579V470.526M1552.5 517.579H1599.55M1552.5 470.526V423.474M1552.5 470.526H1599.55M1552.5 423.474V376.421M1552.5 423.474H1599.55M1552.5 376.421V329.368M1552.5 376.421H1599.55M1552.5 329.368V282.316M1552.5 329.368H1599.55M1552.5 282.316V235.263M1552.5 282.316H1599.55M1552.5 235.263V188.211M1552.5 235.263H1599.55M1552.5 188.211V141.158M1552.5 188.211H1599.55M1552.5 141.158V94.1053M1552.5 141.158H1599.55M1552.5 94.1053V47.0526M1552.5 94.1053H1599.55M1552.5 47.0526V3.8147e-06M1552.5 47.0526H1599.55M1552.5 3.8147e-06H1599.55M1599.55 894V846.947M1599.55 894H1646.59M1599.55 846.947V799.895M1599.55 846.947H1646.59M1599.55 799.895V752.842M1599.55 799.895H1646.59M1599.55 752.842V705.789M1599.55 752.842H1646.59M1599.55 705.789V658.737M1599.55 705.789H1646.59M1599.55 658.737V611.684M1599.55 658.737H1646.59M1599.55 611.684V564.632M1599.55 611.684H1646.59M1599.55 564.632V517.579M1599.55 564.632H1646.59M1599.55 517.579V470.526M1599.55 517.579H1646.59M1599.55 470.526V423.474M1599.55 470.526H1646.59M1599.55 423.474V376.421M1599.55 423.474H1646.59M1599.55 376.421V329.368M1599.55 376.421H1646.59M1599.55 329.368V282.316M1599.55 329.368H1646.59M1599.55 282.316V235.263M1599.55 282.316H1646.59M1599.55 235.263V188.211M1599.55 235.263H1646.59M1599.55 188.211V141.158M1599.55 188.211H1646.59M1599.55 141.158V94.1053M1599.55 141.158H1646.59M1599.55 94.1053V47.0526M1599.55 94.1053H1646.59M1599.55 47.0526V3.8147e-06M1599.55 47.0526H1646.59M1599.55 3.8147e-06H1646.59M1646.59 894V846.947M1646.59 894H1693.64M1646.59 846.947V799.895M1646.59 846.947H1693.64M1646.59 799.895V752.842M1646.59 799.895H1693.64M1646.59 752.842V705.789M1646.59 752.842H1693.64M1646.59 705.789V658.737M1646.59 705.789H1693.64M1646.59 658.737V611.684M1646.59 658.737H1693.64M1646.59 611.684V564.632M1646.59 611.684H1693.64M1646.59 564.632V517.579M1646.59 564.632H1693.64M1646.59 517.579V470.526M1646.59 517.579H1693.64M1646.59 470.526V423.474M1646.59 470.526H1693.64M1646.59 423.474V376.421M1646.59 423.474H1693.64M1646.59 376.421V329.368M1646.59 376.421H1693.64M1646.59 329.368V282.316M1646.59 329.368H1693.64M1646.59 282.316V235.263M1646.59 282.316H1693.64M1646.59 235.263V188.211M1646.59 235.263H1693.64M1646.59 188.211V141.158M1646.59 188.211H1693.64M1646.59 141.158V94.1053M1646.59 141.158H1693.64M1646.59 94.1053V47.0526M1646.59 94.1053H1693.64M1646.59 47.0526V3.8147e-06M1646.59 47.0526H1693.64M1646.59 3.8147e-06H1693.64M1693.64 894V846.947M1693.64 894H1740.68M1693.64 846.947V799.895M1693.64 846.947H1740.68M1693.64 799.895V752.842M1693.64 799.895H1740.68M1693.64 752.842V705.789M1693.64 752.842H1740.68M1693.64 705.789V658.737M1693.64 705.789H1740.68M1693.64 658.737V611.684M1693.64 658.737H1740.68M1693.64 611.684V564.632M1693.64 611.684H1740.68M1693.64 564.632V517.579M1693.64 564.632H1740.68M1693.64 517.579V470.526M1693.64 517.579H1740.68M1693.64 470.526V423.474M1693.64 470.526H1740.68M1693.64 423.474V376.421M1693.64 423.474H1740.68M1693.64 376.421V329.368M1693.64 376.421H1740.68M1693.64 329.368V282.316M1693.64 329.368H1740.68M1693.64 282.316V235.263M1693.64 282.316H1740.68M1693.64 235.263V188.211M1693.64 235.263H1740.68M1693.64 188.211V141.158M1693.64 188.211H1740.68M1693.64 141.158V94.1053M1693.64 141.158H1740.68M1693.64 94.1053V47.0526M1693.64 94.1053H1740.68M1693.64 47.0526V3.8147e-06M1693.64 47.0526H1740.68M1693.64 3.8147e-06H1740.68M1740.68 894V846.947M1740.68 894H1787.73M1740.68 846.947V799.895M1740.68 846.947H1787.73M1740.68 799.895V752.842M1740.68 799.895H1787.73M1740.68 752.842V705.789M1740.68 752.842H1787.73M1740.68 705.789V658.737M1740.68 705.789H1787.73M1740.68 658.737V611.684M1740.68 658.737H1787.73M1740.68 611.684V564.632M1740.68 611.684H1787.73M1740.68 564.632V517.579M1740.68 564.632H1787.73M1740.68 517.579V470.526M1740.68 517.579H1787.73M1740.68 470.526V423.474M1740.68 470.526H1787.73M1740.68 423.474V376.421M1740.68 423.474H1787.73M1740.68 376.421V329.368M1740.68 376.421H1787.73M1740.68 329.368V282.316M1740.68 329.368H1787.73M1740.68 282.316V235.263M1740.68 282.316H1787.73M1740.68 235.263V188.211M1740.68 235.263H1787.73M1740.68 188.211V141.158M1740.68 188.211H1787.73M1740.68 141.158V94.1053M1740.68 141.158H1787.73M1740.68 94.1053V47.0526M1740.68 94.1053H1787.73M1740.68 47.0526V3.8147e-06M1740.68 47.0526H1787.73M1740.68 3.8147e-06H1787.73M1787.73 894V846.947M1787.73 894H1834.77M1787.73 846.947V799.895M1787.73 846.947H1834.77M1787.73 799.895V752.842M1787.73 799.895H1834.77M1787.73 752.842V705.789M1787.73 752.842H1834.77M1787.73 705.789V658.737M1787.73 705.789H1834.77M1787.73 658.737V611.684M1787.73 658.737H1834.77M1787.73 611.684V564.632M1787.73 611.684H1834.77M1787.73 564.632V517.579M1787.73 564.632H1834.77M1787.73 517.579V470.526M1787.73 517.579H1834.77M1787.73 470.526V423.474M1787.73 470.526H1834.77M1787.73 423.474V376.421M1787.73 423.474H1834.77M1787.73 376.421V329.368M1787.73 376.421H1834.77M1787.73 329.368V282.316M1787.73 329.368H1834.77M1787.73 282.316V235.263M1787.73 282.316H1834.77M1787.73 235.263V188.211M1787.73 235.263H1834.77M1787.73 188.211V141.158M1787.73 188.211H1834.77M1787.73 141.158V94.1053M1787.73 141.158H1834.77M1787.73 94.1053V47.0526M1787.73 94.1053H1834.77M1787.73 47.0526V3.8147e-06M1787.73 47.0526H1834.77M1787.73 3.8147e-06H1834.77M1834.77 894V846.947M1834.77 894H1881.82M1834.77 846.947V799.895M1834.77 846.947H1881.82M1834.77 799.895V752.842M1834.77 799.895H1881.82M1834.77 752.842V705.789M1834.77 752.842H1881.82M1834.77 705.789V658.737M1834.77 705.789H1881.82M1834.77 658.737V611.684M1834.77 658.737H1881.82M1834.77 611.684V564.632M1834.77 611.684H1881.82M1834.77 564.632V517.579M1834.77 564.632H1881.82M1834.77 517.579V470.526M1834.77 517.579H1881.82M1834.77 470.526V423.474M1834.77 470.526H1881.82M1834.77 423.474V376.421M1834.77 423.474H1881.82M1834.77 376.421V329.368M1834.77 376.421H1881.82M1834.77 329.368V282.316M1834.77 329.368H1881.82M1834.77 282.316V235.263M1834.77 282.316H1881.82M1834.77 235.263V188.211M1834.77 235.263H1881.82M1834.77 188.211V141.158M1834.77 188.211H1881.82M1834.77 141.158V94.1053M1834.77 141.158H1881.82M1834.77 94.1053V47.0526M1834.77 94.1053H1881.82M1834.77 47.0526V3.8147e-06M1834.77 47.0526H1881.82M1834.77 3.8147e-06H1881.82M1881.82 894V846.947M1881.82 894H1928.86M1881.82 846.947V799.895M1881.82 846.947H1928.86M1881.82 799.895V752.842M1881.82 799.895H1928.86M1881.82 752.842V705.789M1881.82 752.842H1928.86M1881.82 705.789V658.737M1881.82 705.789H1928.86M1881.82 658.737V611.684M1881.82 658.737H1928.86M1881.82 611.684V564.632M1881.82 611.684H1928.86M1881.82 564.632V517.579M1881.82 564.632H1928.86M1881.82 517.579V470.526M1881.82 517.579H1928.86M1881.82 470.526V423.474M1881.82 470.526H1928.86M1881.82 423.474V376.421M1881.82 423.474H1928.86M1881.82 376.421V329.368M1881.82 376.421H1928.86M1881.82 329.368V282.316M1881.82 329.368H1928.86M1881.82 282.316V235.263M1881.82 282.316H1928.86M1881.82 235.263V188.211M1881.82 235.263H1928.86M1881.82 188.211V141.158M1881.82 188.211H1928.86M1881.82 141.158V94.1053M1881.82 141.158H1928.86M1881.82 94.1053V47.0526M1881.82 94.1053H1928.86M1881.82 47.0526V3.8147e-06M1881.82 47.0526H1928.86M1881.82 3.8147e-06H1928.86M1928.86 894V846.947M1928.86 894H1975.91M1928.86 846.947V799.895M1928.86 846.947H1975.91M1928.86 799.895V752.842M1928.86 799.895H1975.91M1928.86 752.842V705.789M1928.86 752.842H1975.91M1928.86 705.789V658.737M1928.86 705.789H1975.91M1928.86 658.737V611.684M1928.86 658.737H1975.91M1928.86 611.684V564.632M1928.86 611.684H1975.91M1928.86 564.632V517.579M1928.86 564.632H1975.91M1928.86 517.579V470.526M1928.86 517.579H1975.91M1928.86 470.526V423.474M1928.86 470.526H1975.91M1928.86 423.474V376.421M1928.86 423.474H1975.91M1928.86 376.421V329.368M1928.86 376.421H1975.91M1928.86 329.368V282.316M1928.86 329.368H1975.91M1928.86 282.316V235.263M1928.86 282.316H1975.91M1928.86 235.263V188.211M1928.86 235.263H1975.91M1928.86 188.211V141.158M1928.86 188.211H1975.91M1928.86 141.158V94.1053M1928.86 141.158H1975.91M1928.86 94.1053V47.0526M1928.86 94.1053H1975.91M1928.86 47.0526V3.8147e-06M1928.86 47.0526H1975.91M1928.86 3.8147e-06H1975.91M1975.91 894V846.947M1975.91 894H2022.95M1975.91 846.947V799.895M1975.91 846.947H2022.95M1975.91 799.895V752.842M1975.91 799.895H2022.95M1975.91 752.842V705.789M1975.91 752.842H2022.95M1975.91 705.789V658.737M1975.91 705.789H2022.95M1975.91 658.737V611.684M1975.91 658.737H2022.95M1975.91 611.684V564.632M1975.91 611.684H2022.95M1975.91 564.632V517.579M1975.91 564.632H2022.95M1975.91 517.579V470.526M1975.91 517.579H2022.95M1975.91 470.526V423.474M1975.91 470.526H2022.95M1975.91 423.474V376.421M1975.91 423.474H2022.95M1975.91 376.421V329.368M1975.91 376.421H2022.95M1975.91 329.368V282.316M1975.91 329.368H2022.95M1975.91 282.316V235.263M1975.91 282.316H2022.95M1975.91 235.263V188.211M1975.91 235.263H2022.95M1975.91 188.211V141.158M1975.91 188.211H2022.95M1975.91 141.158V94.1053M1975.91 141.158H2022.95M1975.91 94.1053V47.0526M1975.91 94.1053H2022.95M1975.91 47.0526V3.8147e-06M1975.91 47.0526H2022.95M1975.91 3.8147e-06H2022.95M2022.95 894V846.947M2022.95 894H2070V846.947M2022.95 846.947V799.895M2022.95 846.947H2070M2022.95 799.895V752.842M2022.95 799.895H2070M2022.95 752.842V705.789M2022.95 752.842H2070M2022.95 705.789V658.737M2022.95 705.789H2070M2022.95 658.737V611.684M2022.95 658.737H2070M2022.95 611.684V564.632M2022.95 611.684H2070M2022.95 564.632V517.579M2022.95 564.632H2070M2022.95 517.579V470.526M2022.95 517.579H2070M2022.95 470.526V423.474M2022.95 470.526H2070M2022.95 423.474V376.421M2022.95 423.474H2070M2022.95 376.421V329.368M2022.95 376.421H2070M2022.95 329.368V282.316M2022.95 329.368H2070M2022.95 282.316V235.263M2022.95 282.316H2070M2022.95 235.263V188.211M2022.95 235.263H2070M2022.95 188.211V141.158M2022.95 188.211H2070M2022.95 141.158V94.1053M2022.95 141.158H2070M2022.95 94.1053V47.0526M2022.95 94.1053H2070M2022.95 47.0526V3.8147e-06M2022.95 47.0526H2070M2022.95 3.8147e-06H2070V47.0526M2070 846.947V799.895M2070 799.895V752.842M2070 752.842V705.789M2070 705.789V658.737M2070 658.737V611.684M2070 611.684V564.632M2070 564.632V517.579M2070 517.579V470.526M2070 470.526V423.474M2070 423.474V376.421M2070 376.421V329.368M2070 329.368V282.316M2070 282.316V235.263M2070 235.263V188.211M2070 188.211V141.158M2070 141.158V94.1053M2070 94.1053V47.0526" stroke="url(#paint0_radial_27434_1258)" stroke-opacity="0.4"/>
</g>
<defs>
<radialGradient id="paint0_radial_27434_1258" cx="0" cy="0" r="1" gradientUnits="userSpaceOnUse" gradientTransform="translate(1035 447) rotate(-90) scale(447 835.781)">
<stop stop-color="white"/>
<stop offset="1" stop-color="white" stop-opacity="0.2"/>
</radialGradient>
</defs>
</svg>
