<svg width="412" height="954" viewBox="0 0 412 954" fill="none" xmlns="http://www.w3.org/2000/svg">
<g style="mix-blend-mode:overlay">
<path d="M411.879 932.145V953.823H390.201M411.879 932.145H390.201M411.879 932.145V910.467M390.201 932.145V953.823M390.201 932.145H368.523M390.201 932.145V910.467M390.201 953.823H368.523M368.523 932.145V953.823M368.523 932.145H346.846M368.523 932.145V910.467M368.523 953.823H346.846M346.846 932.145V953.823M346.846 932.145H325.168M346.846 932.145V910.467M346.846 953.823H325.168M325.168 932.145V953.823M325.168 932.145H303.49M325.168 932.145V910.467M325.168 953.823H303.49M303.49 932.145V953.823M303.49 932.145H281.812M303.49 932.145V910.467M303.49 953.823H281.812M281.812 932.145V953.823M281.812 932.145H260.134M281.812 932.145V910.467M281.812 953.823H260.134M260.134 932.145V953.823M260.134 932.145H238.457M260.134 932.145V910.467M260.134 953.823H238.457M238.457 932.145V953.823M238.457 932.145H216.779M238.457 932.145V910.467M238.457 953.823H216.779M216.779 932.145V953.823M216.779 932.145H195.101M216.779 932.145V910.467M216.779 953.823H195.101M195.101 932.145V953.823M195.101 932.145H173.423M195.101 932.145V910.467M195.101 953.823H173.423M173.423 932.145V953.823M173.423 932.145H151.745M173.423 932.145V910.467M173.423 953.823H151.745M151.745 932.145V953.823M151.745 932.145H130.068M151.745 932.145V910.467M151.745 953.823H130.068M130.068 932.145V953.823M130.068 932.145H108.39M130.068 932.145V910.467M130.068 953.823H108.39M108.39 932.145V953.823M108.39 932.145H86.712M108.39 932.145V910.467M108.39 953.823H86.712M86.712 932.145V953.823M86.712 932.145H65.0342M86.712 932.145V910.467M86.712 953.823H65.0342M65.0342 932.145V953.823M65.0342 932.145H43.3564M65.0342 932.145V910.467M65.0342 953.823H43.3564M43.3564 932.145V953.823M43.3564 932.145H21.6786M43.3564 932.145V910.467M43.3564 953.823H21.6786M21.6786 932.145V953.823M21.6786 932.145H0.000856876M21.6786 932.145V910.467M21.6786 953.823H0.000856876V932.145M0.000856876 932.145V910.467M411.879 910.467H390.201M411.879 910.467V888.79M390.201 910.467H368.523M390.201 910.467V888.79M368.523 910.467H346.846M368.523 910.467V888.79M346.846 910.467H325.168M346.846 910.467V888.79M325.168 910.467H303.49M325.168 910.467V888.79M303.49 910.467H281.812M303.49 910.467V888.79M281.812 910.467H260.134M281.812 910.467V888.79M260.134 910.467H238.457M260.134 910.467V888.79M238.457 910.467H216.779M238.457 910.467V888.79M216.779 910.467H195.101M216.779 910.467V888.79M195.101 910.467H173.423M195.101 910.467V888.79M173.423 910.467H151.745M173.423 910.467V888.79M151.745 910.467H130.068M151.745 910.467V888.79M130.068 910.467H108.39M130.068 910.467V888.79M108.39 910.467H86.712M108.39 910.467V888.79M86.712 910.467H65.0342M86.712 910.467V888.79M65.0342 910.467H43.3564M65.0342 910.467V888.79M43.3564 910.467H21.6786M43.3564 910.467V888.79M21.6786 910.467H0.000856876M21.6786 910.467V888.79M0.000856876 910.467V888.79M411.879 888.79H390.201M411.879 888.79V867.112M390.201 888.79H368.523M390.201 888.79V867.112M368.523 888.79H346.846M368.523 888.79V867.112M346.846 888.79H325.168M346.846 888.79V867.112M325.168 888.79H303.49M325.168 888.79V867.112M303.49 888.79H281.812M303.49 888.79V867.112M281.812 888.79H260.134M281.812 888.79V867.112M260.134 888.79H238.457M260.134 888.79V867.112M238.457 888.79H216.779M238.457 888.79V867.112M216.779 888.79H195.101M216.779 888.79V867.112M195.101 888.79H173.423M195.101 888.79V867.112M173.423 888.79H151.745M173.423 888.79V867.112M151.745 888.79H130.068M151.745 888.79V867.112M130.068 888.79H108.39M130.068 888.79V867.112M108.39 888.79H86.712M108.39 888.79V867.112M86.712 888.79H65.0342M86.712 888.79V867.112M65.0342 888.79H43.3564M65.0342 888.79V867.112M43.3564 888.79H21.6786M43.3564 888.79V867.112M21.6786 888.79H0.000856876M21.6786 888.79V867.112M0.000856876 888.79V867.112M411.879 867.112H390.201M411.879 867.112V845.434M390.201 867.112H368.523M390.201 867.112V845.434M368.523 867.112H346.846M368.523 867.112V845.434M346.846 867.112H325.168M346.846 867.112V845.434M325.168 867.112H303.49M325.168 867.112V845.434M303.49 867.112H281.812M303.49 867.112V845.434M281.812 867.112H260.134M281.812 867.112V845.434M260.134 867.112H238.457M260.134 867.112V845.434M238.457 867.112H216.779M238.457 867.112V845.434M216.779 867.112H195.101M216.779 867.112V845.434M195.101 867.112H173.423M195.101 867.112V845.434M173.423 867.112H151.745M173.423 867.112V845.434M151.745 867.112H130.068M151.745 867.112V845.434M130.068 867.112H108.39M130.068 867.112V845.434M108.39 867.112H86.712M108.39 867.112V845.434M86.712 867.112H65.0342M86.712 867.112V845.434M65.0342 867.112H43.3564M65.0342 867.112V845.434M43.3564 867.112H21.6786M43.3564 867.112V845.434M21.6786 867.112H0.000856876M21.6786 867.112V845.434M0.000856876 867.112V845.434M411.879 845.434H390.201M411.879 845.434V823.756M390.201 845.434H368.523M390.201 845.434V823.756M368.523 845.434H346.846M368.523 845.434V823.756M346.846 845.434H325.168M346.846 845.434V823.756M325.168 845.434H303.49M325.168 845.434V823.756M303.49 845.434H281.812M303.49 845.434V823.756M281.812 845.434H260.134M281.812 845.434V823.756M260.134 845.434H238.457M260.134 845.434V823.756M238.457 845.434H216.779M238.457 845.434V823.756M216.779 845.434H195.101M216.779 845.434V823.756M195.101 845.434H173.423M195.101 845.434V823.756M173.423 845.434H151.745M173.423 845.434V823.756M151.745 845.434H130.068M151.745 845.434V823.756M130.068 845.434H108.39M130.068 845.434V823.756M108.39 845.434H86.712M108.39 845.434V823.756M86.712 845.434H65.0342M86.712 845.434V823.756M65.0342 845.434H43.3564M65.0342 845.434V823.756M43.3564 845.434H21.6786M43.3564 845.434V823.756M21.6786 845.434H0.000856876M21.6786 845.434V823.756M0.000856876 845.434V823.756M411.879 823.756H390.201M411.879 823.756V802.078M390.201 823.756H368.523M390.201 823.756V802.078M368.523 823.756H346.846M368.523 823.756V802.078M346.846 823.756H325.168M346.846 823.756V802.078M325.168 823.756H303.49M325.168 823.756V802.078M303.49 823.756H281.812M303.49 823.756V802.078M281.812 823.756H260.134M281.812 823.756V802.078M260.134 823.756H238.457M260.134 823.756V802.078M238.457 823.756H216.779M238.457 823.756V802.078M216.779 823.756H195.101M216.779 823.756V802.078M195.101 823.756H173.423M195.101 823.756V802.078M173.423 823.756H151.745M173.423 823.756V802.078M151.745 823.756H130.068M151.745 823.756V802.078M130.068 823.756H108.39M130.068 823.756V802.078M108.39 823.756H86.712M108.39 823.756V802.078M86.712 823.756H65.0342M86.712 823.756V802.078M65.0342 823.756H43.3564M65.0342 823.756V802.078M43.3564 823.756H21.6786M43.3564 823.756V802.078M21.6786 823.756H0.000856876M21.6786 823.756V802.078M0.000856876 823.756V802.078M411.879 802.078H390.201M411.879 802.078V780.401M390.201 802.078H368.523M390.201 802.078V780.401M368.523 802.078H346.846M368.523 802.078V780.401M346.846 802.078H325.168M346.846 802.078V780.401M325.168 802.078H303.49M325.168 802.078V780.401M303.49 802.078H281.812M303.49 802.078V780.401M281.812 802.078H260.134M281.812 802.078V780.401M260.134 802.078H238.457M260.134 802.078V780.401M238.457 802.078H216.779M238.457 802.078V780.401M216.779 802.078H195.101M216.779 802.078V780.401M195.101 802.078H173.423M195.101 802.078V780.401M173.423 802.078H151.745M173.423 802.078V780.401M151.745 802.078H130.068M151.745 802.078V780.401M130.068 802.078H108.39M130.068 802.078V780.401M108.39 802.078H86.712M108.39 802.078V780.401M86.712 802.078H65.0342M86.712 802.078V780.401M65.0342 802.078H43.3564M65.0342 802.078V780.401M43.3564 802.078H21.6786M43.3564 802.078V780.401M21.6786 802.078H0.000856876M21.6786 802.078V780.401M0.000856876 802.078V780.401M411.879 780.401H390.201M411.879 780.401V758.723M390.201 780.401H368.523M390.201 780.401V758.723M368.523 780.401H346.846M368.523 780.401V758.723M346.846 780.401H325.168M346.846 780.401V758.723M325.168 780.401H303.49M325.168 780.401V758.723M303.49 780.401H281.812M303.49 780.401V758.723M281.812 780.401H260.134M281.812 780.401V758.723M260.134 780.401H238.457M260.134 780.401V758.723M238.457 780.401H216.779M238.457 780.401V758.723M216.779 780.401H195.101M216.779 780.401V758.723M195.101 780.401H173.423M195.101 780.401V758.723M173.423 780.401H151.745M173.423 780.401V758.723M151.745 780.401H130.068M151.745 780.401V758.723M130.068 780.401H108.39M130.068 780.401V758.723M108.39 780.401H86.712M108.39 780.401V758.723M86.712 780.401H65.0342M86.712 780.401V758.723M65.0342 780.401H43.3564M65.0342 780.401V758.723M43.3564 780.401H21.6786M43.3564 780.401V758.723M21.6786 780.401H0.000856876M21.6786 780.401V758.723M0.000856876 780.401V758.723M411.879 758.723H390.201M411.879 758.723V737.045M390.201 758.723H368.523M390.201 758.723V737.045M368.523 758.723H346.846M368.523 758.723V737.045M346.846 758.723H325.168M346.846 758.723V737.045M325.168 758.723H303.49M325.168 758.723V737.045M303.49 758.723H281.812M303.49 758.723V737.045M281.812 758.723H260.134M281.812 758.723V737.045M260.134 758.723H238.457M260.134 758.723V737.045M238.457 758.723H216.779M238.457 758.723V737.045M216.779 758.723H195.101M216.779 758.723V737.045M195.101 758.723H173.423M195.101 758.723V737.045M173.423 758.723H151.745M173.423 758.723V737.045M151.745 758.723H130.068M151.745 758.723V737.045M130.068 758.723H108.39M130.068 758.723V737.045M108.39 758.723H86.712M108.39 758.723V737.045M86.712 758.723H65.0342M86.712 758.723V737.045M65.0342 758.723H43.3564M65.0342 758.723V737.045M43.3564 758.723H21.6786M43.3564 758.723V737.045M21.6786 758.723H0.000856876M21.6786 758.723V737.045M0.000856876 758.723V737.045M411.879 737.045H390.201M411.879 737.045V715.367M390.201 737.045H368.523M390.201 737.045V715.367M368.523 737.045H346.846M368.523 737.045V715.367M346.846 737.045H325.168M346.846 737.045V715.367M325.168 737.045H303.49M325.168 737.045V715.367M303.49 737.045H281.812M303.49 737.045V715.367M281.812 737.045H260.134M281.812 737.045V715.367M260.134 737.045H238.457M260.134 737.045V715.367M238.457 737.045H216.779M238.457 737.045L238.457 715.367M216.779 737.045H195.101M216.779 737.045L216.779 715.367M195.101 737.045H173.423M195.101 737.045L195.101 715.367M173.423 737.045H151.745M173.423 737.045L173.423 715.367M151.745 737.045H130.068M151.745 737.045V715.367M130.068 737.045H108.39M130.068 737.045V715.367M108.39 737.045H86.712M108.39 737.045V715.367M86.712 737.045H65.0342M86.712 737.045V715.367M65.0342 737.045H43.3564M65.0342 737.045V715.367M43.3564 737.045H21.6786M43.3564 737.045V715.367M21.6786 737.045H0.000856876M21.6786 737.045V715.367M0.000856876 737.045V715.367M411.879 715.367H390.201M411.879 715.367V693.689M390.201 715.367H368.523M390.201 715.367V693.689M368.523 715.367H346.846M368.523 715.367V693.689M346.846 715.367H325.168M346.846 715.367V693.689M325.168 715.367H303.49M325.168 715.367V693.689M303.49 715.367H281.812M303.49 715.367V693.689M281.812 715.367H260.134M281.812 715.367V693.689M260.134 715.367H238.457M260.134 715.367V693.689M238.457 715.367H216.779M238.457 715.367V693.689M216.779 715.367H195.101M216.779 715.367V693.689M195.101 715.367H173.423M195.101 715.367V693.689M173.423 715.367H151.745M173.423 715.367V693.689M151.745 715.367H130.068M151.745 715.367V693.689M130.068 715.367H108.39M130.068 715.367V693.689M108.39 715.367H86.712M108.39 715.367V693.689M86.712 715.367H65.0342M86.712 715.367V693.689M65.0342 715.367H43.3564M65.0342 715.367V693.689M43.3564 715.367H21.6786M43.3564 715.367V693.689M21.6786 715.367H0.000856876M21.6786 715.367V693.689M0.000856876 715.367V693.689M411.879 693.689H390.201M411.879 693.689V672.012M390.201 693.689H368.523M390.201 693.689V672.012M368.523 693.689H346.846M368.523 693.689V672.012M346.846 693.689H325.168M346.846 693.689V672.012M325.168 693.689H303.49M325.168 693.689V672.012M303.49 693.689H281.812M303.49 693.689V672.012M281.812 693.689H260.134M281.812 693.689V672.012M260.134 693.689H238.457M260.134 693.689V672.012M238.457 693.689H216.779M238.457 693.689V672.012M216.779 693.689H195.101M216.779 693.689V672.012M195.101 693.689H173.423M195.101 693.689V672.012M173.423 693.689H151.745M173.423 693.689V672.012M151.745 693.689H130.068M151.745 693.689V672.012M130.068 693.689H108.39M130.068 693.689V672.012M108.39 693.689H86.712M108.39 693.689V672.012M86.712 693.689H65.0342M86.712 693.689V672.012M65.0342 693.689H43.3564M65.0342 693.689V672.012M43.3564 693.689H21.6786M43.3564 693.689V672.012M21.6786 693.689H0.000856876M21.6786 693.689V672.012M0.000856876 693.689V672.012M411.879 672.012H390.201M411.879 672.012V650.334M390.201 672.012H368.523M390.201 672.012V650.334M368.523 672.012H346.846M368.523 672.012V650.334M346.846 672.012H325.168M346.846 672.012V650.334M325.168 672.012H303.49M325.168 672.012V650.334M303.49 672.012H281.812M303.49 672.012V650.334M281.812 672.012H260.134M281.812 672.012V650.334M260.134 672.012H238.457M260.134 672.012V650.334M238.457 672.012H216.779M238.457 672.012V650.334M216.779 672.012H195.101M216.779 672.012V650.334M195.101 672.012H173.423M195.101 672.012V650.334M173.423 672.012H151.745M173.423 672.012V650.334M151.745 672.012H130.068M151.745 672.012V650.334M130.068 672.012H108.39M130.068 672.012V650.334M108.39 672.012H86.712M108.39 672.012V650.334M86.712 672.012H65.0342M86.712 672.012V650.334M65.0342 672.012H43.3564M65.0342 672.012V650.334M43.3564 672.012H21.6786M43.3564 672.012V650.334M21.6786 672.012H0.000856876M21.6786 672.012V650.334M0.000856876 672.012V650.334M411.879 650.334H390.201M411.879 650.334V628.656M390.201 650.334H368.523M390.201 650.334V628.656M368.523 650.334H346.846M368.523 650.334V628.656M346.846 650.334H325.168M346.846 650.334V628.656M325.168 650.334H303.49M325.168 650.334V628.656M303.49 650.334H281.812M303.49 650.334V628.656M281.812 650.334H260.134M281.812 650.334V628.656M260.134 650.334H238.457M260.134 650.334V628.656M238.457 650.334H216.779M238.457 650.334V628.656M216.779 650.334H195.101M216.779 650.334V628.656M195.101 650.334H173.423M195.101 650.334V628.656M173.423 650.334H151.745M173.423 650.334V628.656M151.745 650.334H130.068M151.745 650.334V628.656M130.068 650.334H108.39M130.068 650.334V628.656M108.39 650.334H86.712M108.39 650.334V628.656M86.712 650.334H65.0342M86.712 650.334V628.656M65.0342 650.334H43.3564M65.0342 650.334V628.656M43.3564 650.334H21.6786M43.3564 650.334V628.656M21.6786 650.334H0.000856876M21.6786 650.334V628.656M0.000856876 650.334V628.656M411.879 628.656H390.201M411.879 628.656V606.978M390.201 628.656H368.523M390.201 628.656V606.978M368.523 628.656H346.846M368.523 628.656V606.978M346.846 628.656H325.168M346.846 628.656V606.978M325.168 628.656H303.49M325.168 628.656V606.978M303.49 628.656H281.812M303.49 628.656V606.978M281.812 628.656H260.134M281.812 628.656V606.978M260.134 628.656H238.457M260.134 628.656V606.978M238.457 628.656H216.779M238.457 628.656V606.978M216.779 628.656H195.101M216.779 628.656V606.978M195.101 628.656H173.423M195.101 628.656V606.978M173.423 628.656H151.745M173.423 628.656V606.978M151.745 628.656H130.068M151.745 628.656V606.978M130.068 628.656H108.39M130.068 628.656V606.978M108.39 628.656H86.712M108.39 628.656V606.978M86.712 628.656H65.0342M86.712 628.656V606.978M65.0342 628.656H43.3564M65.0342 628.656V606.978M43.3564 628.656H21.6786M43.3564 628.656V606.978M21.6786 628.656H0.000856876M21.6786 628.656V606.978M0.000856876 628.656V606.978M411.879 606.978H390.201M411.879 606.978V585.3M390.201 606.978H368.523M390.201 606.978V585.3M368.523 606.978H346.846M368.523 606.978V585.3M346.846 606.978H325.168M346.846 606.978V585.3M325.168 606.978H303.49M325.168 606.978V585.3M303.49 606.978H281.812M303.49 606.978V585.3M281.812 606.978H260.134M281.812 606.978V585.3M260.134 606.978H238.457M260.134 606.978V585.3M238.457 606.978H216.779M238.457 606.978V585.3M216.779 606.978H195.101M216.779 606.978V585.3M195.101 606.978H173.423M195.101 606.978V585.3M173.423 606.978H151.745M173.423 606.978V585.3M151.745 606.978H130.068M151.745 606.978V585.3M130.068 606.978H108.39M130.068 606.978V585.3M108.39 606.978H86.712M108.39 606.978V585.3M86.712 606.978H65.0342M86.712 606.978V585.3M65.0342 606.978H43.3564M65.0342 606.978V585.3M43.3564 606.978H21.6786M43.3564 606.978V585.3M21.6786 606.978H0.000856876M21.6786 606.978V585.3M0.000856876 606.978V585.3M411.879 585.3H390.201M411.879 585.3V563.623M390.201 585.3H368.523M390.201 585.3V563.623M368.523 585.3H346.846M368.523 585.3V563.623M346.846 585.3H325.168M346.846 585.3V563.623M325.168 585.3H303.49M325.168 585.3V563.623M303.49 585.3H281.812M303.49 585.3V563.623M281.812 585.3H260.134M281.812 585.3V563.623M260.134 585.3H238.457M260.134 585.3V563.623M238.457 585.3H216.779M238.457 585.3V563.623M216.779 585.3H195.101M216.779 585.3V563.623M195.101 585.3H173.423M195.101 585.3V563.623M173.423 585.3H151.745M173.423 585.3V563.623M151.745 585.3H130.068M151.745 585.3V563.623M130.068 585.3H108.39M130.068 585.3V563.623M108.39 585.3H86.712M108.39 585.3V563.623M86.712 585.3H65.0342M86.712 585.3V563.623M65.0342 585.3H43.3564M65.0342 585.3V563.623M43.3564 585.3H21.6786M43.3564 585.3V563.623M21.6786 585.3H0.000856876M21.6786 585.3V563.623M0.000856876 585.3V563.623M411.879 563.623H390.201M411.879 563.623V541.945M390.201 563.623H368.523M390.201 563.623V541.945M368.523 563.623H346.846M368.523 563.623V541.945M346.846 563.623H325.168M346.846 563.623V541.945M325.168 563.623H303.49M325.168 563.623V541.945M303.49 563.623H281.812M303.49 563.623V541.945M281.812 563.623H260.134M281.812 563.623V541.945M260.134 563.623H238.457M260.134 563.623V541.945M238.457 563.623H216.779M238.457 563.623V541.945M216.779 563.623H195.101M216.779 563.623V541.945M195.101 563.623H173.423M195.101 563.623V541.945M173.423 563.623H151.745M173.423 563.623V541.945M151.745 563.623H130.068M151.745 563.623V541.945M130.068 563.623H108.39M130.068 563.623V541.945M108.39 563.623H86.712M108.39 563.623V541.945M86.712 563.623H65.0342M86.712 563.623V541.945M65.0342 563.623H43.3564M65.0342 563.623V541.945M43.3564 563.623H21.6786M43.3564 563.623V541.945M21.6786 563.623H0.000856876M21.6786 563.623V541.945M0.000856876 563.623V541.945M411.879 541.945H390.201M411.879 541.945V520.267M390.201 541.945H368.523M390.201 541.945V520.267M368.523 541.945H346.846M368.523 541.945V520.267M346.846 541.945H325.168M346.846 541.945V520.267M325.168 541.945H303.49M325.168 541.945V520.267M303.49 541.945H281.812M303.49 541.945V520.267M281.812 541.945H260.134M281.812 541.945V520.267M260.134 541.945H238.457M260.134 541.945V520.267M238.457 541.945H216.779M238.457 541.945V520.267M216.779 541.945H195.101M216.779 541.945V520.267M195.101 541.945H173.423M195.101 541.945V520.267M173.423 541.945H151.745M173.423 541.945V520.267M151.745 541.945H130.068M151.745 541.945V520.267M130.068 541.945H108.39M130.068 541.945V520.267M108.39 541.945H86.712M108.39 541.945V520.267M86.712 541.945H65.0342M86.712 541.945V520.267M65.0342 541.945H43.3564M65.0342 541.945V520.267M43.3564 541.945H21.6786M43.3564 541.945V520.267M21.6786 541.945H0.000856876M21.6786 541.945V520.267M0.000856876 541.945V520.267M411.879 520.267H390.201M411.879 520.267V498.589M390.201 520.267H368.523M390.201 520.267V498.589M368.523 520.267H346.846M368.523 520.267V498.589M346.846 520.267H325.168M346.846 520.267V498.589M325.168 520.267H303.49M325.168 520.267V498.589M303.49 520.267H281.812M303.49 520.267V498.589M281.812 520.267H260.134M281.812 520.267V498.589M260.134 520.267H238.457M260.134 520.267V498.589M238.457 520.267H216.779M238.457 520.267V498.589M216.779 520.267H195.101M216.779 520.267V498.589M195.101 520.267H173.423M195.101 520.267V498.589M173.423 520.267H151.745M173.423 520.267V498.589M151.745 520.267H130.068M151.745 520.267V498.589M130.068 520.267H108.39M130.068 520.267V498.589M108.39 520.267H86.712M108.39 520.267V498.589M86.712 520.267H65.0342M86.712 520.267V498.589M65.0342 520.267H43.3564M65.0342 520.267V498.589M43.3564 520.267H21.6786M43.3564 520.267V498.589M21.6786 520.267H0.000856876M21.6786 520.267V498.589M0.000856876 520.267V498.589M411.879 498.589H390.201M411.879 498.589L411.879 476.912M390.201 498.589H368.523M390.201 498.589V476.912M368.523 498.589H346.846M368.523 498.589V476.912M346.846 498.589H325.168M346.846 498.589V476.912M325.168 498.589H303.49M325.168 498.589V476.912M303.49 498.589H281.812M303.49 498.589V476.912M281.812 498.589H260.134M281.812 498.589V476.912M260.134 498.589H238.457M260.134 498.589V476.912M238.457 498.589H216.779M238.457 498.589V476.912M216.779 498.589H195.101M216.779 498.589V476.912M195.101 498.589H173.423M195.101 498.589V476.912M173.423 498.589H151.745M173.423 498.589V476.912M151.745 498.589H130.068M151.745 498.589L151.745 476.912M130.068 498.589H108.39M130.068 498.589L130.068 476.912M108.39 498.589H86.712M108.39 498.589L108.39 476.912M86.712 498.589H65.0342M86.712 498.589L86.712 476.912M65.0342 498.589H43.3564M65.0342 498.589L65.0342 476.912M43.3564 498.589H21.6786M43.3564 498.589L43.3564 476.912M21.6786 498.589H0.000856876M21.6786 498.589L21.6786 476.912M0.000856876 498.589L0.000856876 476.912M411.879 476.912H390.201M411.879 476.912V455.234M390.201 476.912H368.523M390.201 476.912L390.201 455.234M368.523 476.912H346.846M368.523 476.912V455.234M346.846 476.912H325.168M346.846 476.912V455.234M325.168 476.912H303.49M325.168 476.912V455.234M303.49 476.912H281.812M303.49 476.912V455.234M281.812 476.912H260.134M281.812 476.912V455.234M260.134 476.912H238.457M260.134 476.912V455.234M238.457 476.912H216.779M238.457 476.912V455.234M216.779 476.912H195.101M216.779 476.912V455.234M195.101 476.912H173.423M195.101 476.912V455.234M173.423 476.912H151.745M173.423 476.912V455.234M151.745 476.912H130.068M151.745 476.912V455.234M130.068 476.912H108.39M130.068 476.912V455.234M108.39 476.912H86.712M108.39 476.912V455.234M86.712 476.912H65.0342M86.712 476.912V455.234M65.0342 476.912H43.3564M65.0342 476.912V455.234M43.3564 476.912H21.6786M43.3564 476.912V455.234M21.6786 476.912H0.000856876M21.6786 476.912V455.234M0.000856876 476.912V455.234M411.879 455.234H390.201M411.879 455.234V433.556M390.201 455.234H368.523M390.201 455.234V433.556M368.523 455.234H346.846M368.523 455.234V433.556M346.846 455.234H325.168M346.846 455.234V433.556M325.168 455.234H303.49M325.168 455.234V433.556M303.49 455.234H281.812M303.49 455.234V433.556M281.812 455.234H260.134M281.812 455.234V433.556M260.134 455.234H238.457M260.134 455.234V433.556M238.457 455.234H216.779M238.457 455.234V433.556M216.779 455.234H195.101M216.779 455.234V433.556M195.101 455.234H173.423M195.101 455.234V433.556M173.423 455.234H151.745M173.423 455.234V433.556M151.745 455.234H130.068M151.745 455.234V433.556M130.068 455.234H108.39M130.068 455.234V433.556M108.39 455.234H86.712M108.39 455.234V433.556M86.712 455.234H65.0342M86.712 455.234V433.556M65.0342 455.234H43.3564M65.0342 455.234V433.556M43.3564 455.234H21.6786M43.3564 455.234V433.556M21.6786 455.234H0.000856876M21.6786 455.234V433.556M0.000856876 455.234V433.556M411.879 433.556H390.201M411.879 433.556V411.878M390.201 433.556H368.523M390.201 433.556V411.878M368.523 433.556H346.846M368.523 433.556L368.523 411.878M346.846 433.556H325.168M346.846 433.556V411.878M325.168 433.556H303.49M325.168 433.556V411.878M303.49 433.556H281.812M303.49 433.556V411.878M281.812 433.556H260.134M281.812 433.556V411.878M260.134 433.556H238.457M260.134 433.556V411.878M238.457 433.556H216.779M238.457 433.556V411.878M216.779 433.556H195.101M216.779 433.556V411.878M195.101 433.556H173.423M195.101 433.556V411.878M173.423 433.556H151.745M173.423 433.556V411.878M151.745 433.556H130.068M151.745 433.556V411.878M130.068 433.556H108.39M130.068 433.556V411.878M108.39 433.556H86.712M108.39 433.556V411.878M86.712 433.556H65.0342M86.712 433.556V411.878M65.0342 433.556H43.3564M65.0342 433.556V411.878M43.3564 433.556H21.6786M43.3564 433.556V411.878M21.6786 433.556H0.000856876M21.6786 433.556V411.878M0.000856876 433.556V411.878M411.879 411.878H390.201M411.879 411.878V390.2M390.201 411.878H368.523M390.201 411.878V390.2M368.523 411.878H346.846M368.523 411.878V390.2M346.846 411.878H325.168M346.846 411.878V390.2M325.168 411.878H303.49M325.168 411.878V390.2M303.49 411.878H281.812M303.49 411.878V390.2M281.812 411.878H260.134M281.812 411.878V390.2M260.134 411.878H238.457M260.134 411.878V390.2M238.457 411.878H216.779M238.457 411.878V390.2M216.779 411.878H195.101M216.779 411.878V390.2M195.101 411.878H173.423M195.101 411.878V390.2M173.423 411.878H151.745M173.423 411.878V390.2M151.745 411.878H130.068M151.745 411.878V390.2M130.068 411.878H108.39M130.068 411.878V390.2M108.39 411.878H86.712M108.39 411.878V390.2M86.712 411.878H65.0342M86.712 411.878V390.2M65.0342 411.878H43.3564M65.0342 411.878V390.2M43.3564 411.878H21.6786M43.3564 411.878V390.2M21.6786 411.878H0.000856876M21.6786 411.878V390.2M0.000856876 411.878V390.2M411.879 390.2H390.201M411.879 390.2V368.523M390.201 390.2H368.523M390.201 390.2V368.523M368.523 390.2H346.846M368.523 390.2V368.523M346.846 390.2H325.168M346.846 390.2L346.846 368.523M325.168 390.2H303.49M325.168 390.2L325.168 368.523M303.49 390.2H281.812M303.49 390.2L303.49 368.523M281.812 390.2H260.134M281.812 390.2V368.523M260.134 390.2H238.457M260.134 390.2V368.523M238.457 390.2H216.779M238.457 390.2V368.523M216.779 390.2H195.101M216.779 390.2V368.523M195.101 390.2H173.423M195.101 390.2V368.523M173.423 390.2H151.745M173.423 390.2V368.523M151.745 390.2H130.068M151.745 390.2V368.523M130.068 390.2H108.39M130.068 390.2V368.523M108.39 390.2H86.712M108.39 390.2V368.523M86.712 390.2H65.0342M86.712 390.2V368.523M65.0342 390.2H43.3564M65.0342 390.2V368.523M43.3564 390.2H21.6786M43.3564 390.2V368.523M21.6786 390.2H0.000856876M21.6786 390.2V368.523M0.000856876 390.2V368.523M411.879 368.523H390.201M411.879 368.523V346.845M390.201 368.523H368.523M390.201 368.523V346.845M368.523 368.523H346.846M368.523 368.523V346.845M346.846 368.523H325.168M346.846 368.523V346.845M325.168 368.523H303.49M325.168 368.523V346.845M303.49 368.523H281.812M303.49 368.523V346.845M281.812 368.523H260.134M281.812 368.523V346.845M260.134 368.523H238.457M260.134 368.523V346.845M238.457 368.523H216.779M238.457 368.523V346.845M216.779 368.523H195.101M216.779 368.523V346.845M195.101 368.523H173.423M195.101 368.523V346.845M173.423 368.523H151.745M173.423 368.523V346.845M151.745 368.523H130.068M151.745 368.523V346.845M130.068 368.523H108.39M130.068 368.523V346.845M108.39 368.523H86.712M108.39 368.523V346.845M86.712 368.523H65.0342M86.712 368.523V346.845M65.0342 368.523H43.3564M65.0342 368.523V346.845M43.3564 368.523H21.6786M43.3564 368.523V346.845M21.6786 368.523H0.000856876M21.6786 368.523V346.845M0.000856876 368.523V346.845M411.879 346.845H390.201M411.879 346.845V325.167M390.201 346.845H368.523M390.201 346.845V325.167M368.523 346.845H346.846M368.523 346.845V325.167M346.846 346.845H325.168M346.846 346.845V325.167M325.168 346.845H303.49M325.168 346.845V325.167M303.49 346.845H281.812M303.49 346.845V325.167M281.812 346.845H260.134M281.812 346.845V325.167M260.134 346.845H238.457M260.134 346.845V325.167M238.457 346.845H216.779M238.457 346.845V325.167M216.779 346.845H195.101M216.779 346.845V325.167M195.101 346.845H173.423M195.101 346.845V325.167M173.423 346.845H151.745M173.423 346.845V325.167M151.745 346.845H130.068M151.745 346.845V325.167M130.068 346.845H108.39M130.068 346.845V325.167M108.39 346.845H86.712M108.39 346.845V325.167M86.712 346.845H65.0342M86.712 346.845V325.167M65.0342 346.845H43.3564M65.0342 346.845V325.167M43.3564 346.845H21.6786M43.3564 346.845V325.167M21.6786 346.845H0.000856876M21.6786 346.845V325.167M0.000856876 346.845V325.167M411.879 325.167H390.201M411.879 325.167V303.489M390.201 325.167H368.523M390.201 325.167V303.489M368.523 325.167H346.846M368.523 325.167V303.489M346.846 325.167H325.168M346.846 325.167V303.489M325.168 325.167H303.49M325.168 325.167V303.489M303.49 325.167H281.812M303.49 325.167V303.489M281.812 325.167H260.134M281.812 325.167V303.489M260.134 325.167H238.457M260.134 325.167V303.489M238.457 325.167H216.779M238.457 325.167V303.489M216.779 325.167H195.101M216.779 325.167V303.489M195.101 325.167H173.423M195.101 325.167V303.489M173.423 325.167H151.745M173.423 325.167V303.489M151.745 325.167H130.068M151.745 325.167V303.489M130.068 325.167H108.39M130.068 325.167V303.489M108.39 325.167H86.712M108.39 325.167V303.489M86.712 325.167H65.0342M86.712 325.167V303.489M65.0342 325.167H43.3564M65.0342 325.167V303.489M43.3564 325.167H21.6786M43.3564 325.167V303.489M21.6786 325.167H0.000856876M21.6786 325.167V303.489M0.000856876 325.167V303.489M411.879 303.489H390.201M411.879 303.489V281.811M390.201 303.489H368.523M390.201 303.489V281.811M368.523 303.489H346.846M368.523 303.489V281.811M346.846 303.489H325.168M346.846 303.489V281.811M325.168 303.489H303.49M325.168 303.489V281.811M303.49 303.489H281.812M303.49 303.489V281.811M281.812 303.489H260.134M281.812 303.489V281.811M260.134 303.489H238.457M260.134 303.489V281.811M238.457 303.489H216.779M238.457 303.489V281.811M216.779 303.489H195.101M216.779 303.489V281.811M195.101 303.489H173.423M195.101 303.489V281.811M173.423 303.489H151.745M173.423 303.489V281.811M151.745 303.489H130.068M151.745 303.489V281.811M130.068 303.489H108.39M130.068 303.489V281.811M108.39 303.489H86.712M108.39 303.489V281.811M86.712 303.489H65.0342M86.712 303.489V281.811M65.0342 303.489H43.3564M65.0342 303.489V281.811M43.3564 303.489H21.6786M43.3564 303.489V281.811M21.6786 303.489H0.000856876M21.6786 303.489V281.811M0.000856876 303.489V281.811M411.879 281.811H390.201M411.879 281.811V260.134M390.201 281.811H368.523M390.201 281.811V260.134M368.523 281.811H346.846M368.523 281.811V260.134M346.846 281.811H325.168M346.846 281.811V260.134M325.168 281.811H303.49M325.168 281.811V260.134M303.49 281.811H281.812M303.49 281.811V260.134M281.812 281.811H260.134M281.812 281.811V260.134M260.134 281.811H238.457M260.134 281.811V260.134M238.457 281.811H216.779M238.457 281.811V260.134M216.779 281.811H195.101M216.779 281.811V260.134M195.101 281.811H173.423M195.101 281.811V260.134M173.423 281.811H151.745M173.423 281.811V260.134M151.745 281.811H130.068M151.745 281.811V260.134M130.068 281.811H108.39M130.068 281.811V260.134M108.39 281.811H86.712M108.39 281.811V260.134M86.712 281.811H65.0342M86.712 281.811V260.134M65.0342 281.811H43.3564M65.0342 281.811V260.134M43.3564 281.811H21.6786M43.3564 281.811V260.134M21.6786 281.811H0.000856876M21.6786 281.811V260.134M0.000856876 281.811V260.134M411.879 260.134H390.201M411.879 260.134V238.456M390.201 260.134H368.523M390.201 260.134V238.456M368.523 260.134H346.846M368.523 260.134V238.456M346.846 260.134H325.168M346.846 260.134V238.456M325.168 260.134H303.49M325.168 260.134V238.456M303.49 260.134H281.812M303.49 260.134V238.456M281.812 260.134H260.134M281.812 260.134L281.812 238.456M260.134 260.134H238.457M260.134 260.134L260.134 238.456M238.457 260.134H216.779M238.457 260.134L238.457 238.456M216.779 260.134H195.101M216.779 260.134L216.779 238.456M195.101 260.134H173.423M195.101 260.134L195.101 238.456M173.423 260.134H151.745M173.423 260.134L173.423 238.456M151.745 260.134H130.068M151.745 260.134V238.456M130.068 260.134H108.39M130.068 260.134V238.456M108.39 260.134H86.712M108.39 260.134V238.456M86.712 260.134H65.0342M86.712 260.134V238.456M65.0342 260.134H43.3564M65.0342 260.134V238.456M43.3564 260.134H21.6786M43.3564 260.134V238.456M21.6786 260.134H0.000856876M21.6786 260.134V238.456M0.000856876 260.134V238.456M411.879 238.456H390.201M411.879 238.456V216.778M390.201 238.456H368.523M390.201 238.456V216.778M368.523 238.456H346.846M368.523 238.456V216.778M346.846 238.456H325.168M346.846 238.456V216.778M325.168 238.456H303.49M325.168 238.456V216.778M303.49 238.456H281.812M303.49 238.456V216.778M281.812 238.456H260.134M281.812 238.456V216.778M260.134 238.456H238.457M260.134 238.456V216.778M238.457 238.456H216.779M238.457 238.456V216.778M216.779 238.456H195.101M216.779 238.456V216.778M195.101 238.456H173.423M195.101 238.456V216.778M173.423 238.456H151.745M173.423 238.456V216.778M151.745 238.456H130.068M151.745 238.456V216.778M130.068 238.456H108.39M130.068 238.456V216.778M108.39 238.456H86.712M108.39 238.456V216.778M86.712 238.456H65.0342M86.712 238.456V216.778M65.0342 238.456H43.3564M65.0342 238.456V216.778M43.3564 238.456H21.6786M43.3564 238.456V216.778M21.6786 238.456H0.000856876M21.6786 238.456V216.778M0.000856876 238.456V216.778M411.879 216.778H390.201M411.879 216.778V195.1M390.201 216.778H368.523M390.201 216.778V195.1M368.523 216.778H346.846M368.523 216.778V195.1M346.846 216.778H325.168M346.846 216.778V195.1M325.168 216.778H303.49M325.168 216.778V195.1M303.49 216.778H281.812M303.49 216.778V195.1M281.812 216.778H260.134M281.812 216.778V195.1M260.134 216.778H238.457M260.134 216.778V195.1M238.457 216.778H216.779M238.457 216.778V195.1M216.779 216.778H195.101M216.779 216.778V195.1M195.101 216.778H173.423M195.101 216.778V195.1M173.423 216.778H151.745M173.423 216.778V195.1M151.745 216.778H130.068M151.745 216.778V195.1M130.068 216.778H108.39M130.068 216.778V195.1M108.39 216.778H86.712M108.39 216.778V195.1M86.712 216.778H65.0342M86.712 216.778V195.1M65.0342 216.778H43.3564M65.0342 216.778V195.1M43.3564 216.778H21.6786M43.3564 216.778V195.1M21.6786 216.778H0.000856876M21.6786 216.778V195.1M0.000856876 216.778V195.1M411.879 195.1H390.201M411.879 195.1V173.422M390.201 195.1H368.523M390.201 195.1V173.422M368.523 195.1H346.846M368.523 195.1V173.422M346.846 195.1H325.168M346.846 195.1V173.422M325.168 195.1H303.49M325.168 195.1V173.422M303.49 195.1H281.812M303.49 195.1V173.422M281.812 195.1H260.134M281.812 195.1V173.422M260.134 195.1H238.457M260.134 195.1V173.422M238.457 195.1H216.779M238.457 195.1V173.422M216.779 195.1H195.101M216.779 195.1V173.422M195.101 195.1H173.423M195.101 195.1V173.422M173.423 195.1H151.745M173.423 195.1V173.422M151.745 195.1H130.068M151.745 195.1V173.422M130.068 195.1H108.39M130.068 195.1V173.422M108.39 195.1H86.712M108.39 195.1V173.422M86.712 195.1H65.0342M86.712 195.1V173.422M65.0342 195.1H43.3564M65.0342 195.1V173.422M43.3564 195.1H21.6786M43.3564 195.1V173.422M21.6786 195.1H0.000856876M21.6786 195.1V173.422M0.000856876 195.1V173.422M411.879 173.422H390.201M411.879 173.422V151.745M390.201 173.422H368.523M390.201 173.422V151.745M368.523 173.422H346.846M368.523 173.422V151.745M346.846 173.422H325.168M346.846 173.422V151.745M325.168 173.422H303.49M325.168 173.422V151.745M303.49 173.422H281.812M303.49 173.422V151.745M281.812 173.422H260.134M281.812 173.422V151.745M260.134 173.422H238.457M260.134 173.422V151.745M238.457 173.422H216.779M238.457 173.422V151.745M216.779 173.422H195.101M216.779 173.422V151.745M195.101 173.422H173.423M195.101 173.422V151.745M173.423 173.422H151.745M173.423 173.422V151.745M151.745 173.422H130.068M151.745 173.422V151.745M130.068 173.422H108.39M130.068 173.422V151.745M108.39 173.422H86.712M108.39 173.422V151.745M86.712 173.422H65.0342M86.712 173.422V151.745M65.0342 173.422H43.3564M65.0342 173.422V151.745M43.3564 173.422H21.6786M43.3564 173.422V151.745M21.6786 173.422H0.000856876M21.6786 173.422V151.745M0.000856876 173.422V151.745M411.879 151.745H390.201M411.879 151.745V130.067M390.201 151.745H368.523M390.201 151.745V130.067M368.523 151.745H346.846M368.523 151.745V130.067M346.846 151.745H325.168M346.846 151.745V130.067M325.168 151.745H303.49M325.168 151.745V130.067M303.49 151.745H281.812M303.49 151.745V130.067M281.812 151.745H260.134M281.812 151.745V130.067M260.134 151.745H238.457M260.134 151.745V130.067M238.457 151.745H216.779M238.457 151.745V130.067M216.779 151.745H195.101M216.779 151.745V130.067M195.101 151.745H173.423M195.101 151.745V130.067M173.423 151.745H151.745M173.423 151.745V130.067M151.745 151.745H130.068M151.745 151.745V130.067M130.068 151.745H108.39M130.068 151.745V130.067M108.39 151.745H86.712M108.39 151.745V130.067M86.712 151.745H65.0342M86.712 151.745V130.067M65.0342 151.745H43.3564M65.0342 151.745V130.067M43.3564 151.745H21.6786M43.3564 151.745V130.067M21.6786 151.745H0.000856876M21.6786 151.745V130.067M0.000856876 151.745V130.067M411.879 130.067H390.201M411.879 130.067V108.389M390.201 130.067H368.523M390.201 130.067V108.389M368.523 130.067H346.846M368.523 130.067V108.389M346.846 130.067H325.168M346.846 130.067V108.389M325.168 130.067H303.49M325.168 130.067V108.389M303.49 130.067H281.812M303.49 130.067V108.389M281.812 130.067H260.134M281.812 130.067V108.389M260.134 130.067H238.457M260.134 130.067V108.389M238.457 130.067H216.779M238.457 130.067V108.389M216.779 130.067H195.101M216.779 130.067V108.389M195.101 130.067H173.423M195.101 130.067V108.389M173.423 130.067H151.745M173.423 130.067V108.389M151.745 130.067H130.068M151.745 130.067V108.389M130.068 130.067H108.39M130.068 130.067V108.389M108.39 130.067H86.712M108.39 130.067V108.389M86.712 130.067H65.0342M86.712 130.067V108.389M65.0342 130.067H43.3564M65.0342 130.067V108.389M43.3564 130.067H21.6786M43.3564 130.067V108.389M21.6786 130.067H0.000856876M21.6786 130.067V108.389M0.000856876 130.067V108.389M411.879 108.389H390.201M411.879 108.389V86.7112M390.201 108.389H368.523M390.201 108.389V86.7112M368.523 108.389H346.846M368.523 108.389V86.7112M346.846 108.389H325.168M346.846 108.389V86.7112M325.168 108.389H303.49M325.168 108.389V86.7112M303.49 108.389H281.812M303.49 108.389V86.7112M281.812 108.389H260.134M281.812 108.389V86.7112M260.134 108.389H238.457M260.134 108.389V86.7112M238.457 108.389H216.779M238.457 108.389V86.7112M216.779 108.389H195.101M216.779 108.389V86.7112M195.101 108.389H173.423M195.101 108.389V86.7112M173.423 108.389H151.745M173.423 108.389V86.7112M151.745 108.389H130.068M151.745 108.389V86.7112M130.068 108.389H108.39M130.068 108.389V86.7112M108.39 108.389H86.712M108.39 108.389V86.7112M86.712 108.389H65.0342M86.712 108.389V86.7112M65.0342 108.389H43.3564M65.0342 108.389V86.7112M43.3564 108.389H21.6786M43.3564 108.389V86.7112M21.6786 108.389H0.000856876M21.6786 108.389V86.7112M0.000856876 108.389V86.7112M411.879 86.7112H390.201M411.879 86.7112V65.0334M390.201 86.7112H368.523M390.201 86.7112V65.0334M368.523 86.7112H346.846M368.523 86.7112V65.0334M346.846 86.7112H325.168M346.846 86.7112V65.0334M325.168 86.7112H303.49M325.168 86.7112V65.0334M303.49 86.7112H281.812M303.49 86.7112V65.0334M281.812 86.7112H260.134M281.812 86.7112V65.0334M260.134 86.7112H238.457M260.134 86.7112V65.0334M238.457 86.7112H216.779M238.457 86.7112V65.0334M216.779 86.7112H195.101M216.779 86.7112V65.0334M195.101 86.7112H173.423M195.101 86.7112V65.0334M173.423 86.7112H151.745M173.423 86.7112V65.0334M151.745 86.7112H130.068M151.745 86.7112V65.0334M130.068 86.7112H108.39M130.068 86.7112V65.0334M108.39 86.7112H86.712M108.39 86.7112V65.0334M86.712 86.7112H65.0342M86.712 86.7112V65.0334M65.0342 86.7112H43.3564M65.0342 86.7112V65.0334M43.3564 86.7112H21.6786M43.3564 86.7112V65.0334M21.6786 86.7112H0.000856876M21.6786 86.7112V65.0334M0.000856876 86.7112V65.0334M411.879 65.0334H390.201M411.879 65.0334V43.3556M390.201 65.0334H368.523M390.201 65.0334V43.3556M368.523 65.0334H346.846M368.523 65.0334V43.3556M346.846 65.0334H325.168M346.846 65.0334V43.3556M325.168 65.0334H303.49M325.168 65.0334V43.3556M303.49 65.0334H281.812M303.49 65.0334V43.3556M281.812 65.0334H260.134M281.812 65.0334V43.3556M260.134 65.0334H238.457M260.134 65.0334V43.3556M238.457 65.0334H216.779M238.457 65.0334V43.3556M216.779 65.0334H195.101M216.779 65.0334V43.3556M195.101 65.0334H173.423M195.101 65.0334V43.3556M173.423 65.0334H151.745M173.423 65.0334V43.3556M151.745 65.0334H130.068M151.745 65.0334V43.3556M130.068 65.0334H108.39M130.068 65.0334V43.3556M108.39 65.0334H86.712M108.39 65.0334V43.3556M86.712 65.0334H65.0342M86.712 65.0334V43.3556M65.0342 65.0334H43.3564M65.0342 65.0334V43.3556M43.3564 65.0334H21.6786M43.3564 65.0334V43.3556M21.6786 65.0334H0.000856876M21.6786 65.0334V43.3556M0.000856876 65.0334V43.3556M411.879 43.3556H390.201M411.879 43.3556V21.6778M390.201 43.3556H368.523M390.201 43.3556V21.6778M368.523 43.3556H346.846M368.523 43.3556V21.6778M346.846 43.3556H325.168M346.846 43.3556V21.6778M325.168 43.3556H303.49M325.168 43.3556V21.6778M303.49 43.3556H281.812M303.49 43.3556V21.6778M281.812 43.3556H260.134M281.812 43.3556V21.6778M260.134 43.3556H238.457M260.134 43.3556V21.6778M238.457 43.3556H216.779M238.457 43.3556V21.6778M216.779 43.3556H195.101M216.779 43.3556V21.6778M195.101 43.3556H173.423M195.101 43.3556V21.6778M173.423 43.3556H151.745M173.423 43.3556V21.6778M151.745 43.3556H130.068M151.745 43.3556V21.6778M130.068 43.3556H108.39M130.068 43.3556V21.6778M108.39 43.3556H86.712M108.39 43.3556V21.6778M86.712 43.3556H65.0342M86.712 43.3556V21.6778M65.0342 43.3556H43.3564M65.0342 43.3556V21.6778M43.3564 43.3556H21.6786M43.3564 43.3556V21.6778M21.6786 43.3556H0.000856876M21.6786 43.3556V21.6778M0.000856876 43.3556V21.6778M411.879 21.6778H390.201M411.879 21.6778V4.19617e-05H390.201M390.201 21.6778H368.523M390.201 21.6778V4.19617e-05M368.523 21.6778H346.846M368.523 21.6778V4.19617e-05M346.846 21.6778H325.168M346.846 21.6778V4.19617e-05M325.168 21.6778H303.49M325.168 21.6778V4.19617e-05M303.49 21.6778H281.812M303.49 21.6778V4.19617e-05M281.812 21.6778H260.134M281.812 21.6778V4.19617e-05M260.134 21.6778H238.457M260.134 21.6778V4.19617e-05M238.457 21.6778H216.779M238.457 21.6778V4.19617e-05M216.779 21.6778H195.101M216.779 21.6778V4.19617e-05M195.101 21.6778H173.423M195.101 21.6778V4.19617e-05M173.423 21.6778H151.745M173.423 21.6778V4.19617e-05M151.745 21.6778H130.068M151.745 21.6778V4.19617e-05M130.068 21.6778H108.39M130.068 21.6778V4.19617e-05M108.39 21.6778H86.712M108.39 21.6778V4.19617e-05M86.712 21.6778H65.0342M86.712 21.6778V4.19617e-05M65.0342 21.6778H43.3564M65.0342 21.6778V4.19617e-05M43.3564 21.6778H21.6786M43.3564 21.6778V4.19617e-05M21.6786 21.6778H0.000856876M21.6786 21.6778V4.19617e-05M0.000856876 21.6778V4.19617e-05H21.6786M390.201 4.19617e-05H368.523M368.523 4.19617e-05H346.846M346.846 4.19617e-05H325.168M325.168 4.19617e-05H303.49M303.49 4.19617e-05H281.812M281.812 4.19617e-05H260.134M260.134 4.19617e-05H238.457M238.457 4.19617e-05H216.779M216.779 4.19617e-05H195.101M195.101 4.19617e-05H173.423M173.423 4.19617e-05H151.745M151.745 4.19617e-05H130.068M130.068 4.19617e-05H108.39M108.39 4.19617e-05H86.712M86.712 4.19617e-05H65.0342M65.0342 4.19617e-05H43.3564M43.3564 4.19617e-05H21.6786" stroke="url(#paint0_radial_27434_1261)" stroke-opacity="0.4" stroke-width="0.386355"/>
</g>
<defs>
<radialGradient id="paint0_radial_27434_1261" cx="0" cy="0" r="1" gradientUnits="userSpaceOnUse" gradientTransform="translate(205.94 476.911) rotate(180) scale(205.939 385.114)">
<stop stop-color="white"/>
<stop offset="1" stop-color="white" stop-opacity="0.2"/>
</radialGradient>
</defs>
</svg>
