<svg width="25" height="25" viewBox="0 0 25 25" fill="none" xmlns="http://www.w3.org/2000/svg">
<path d="M12.6825 3.10189C12.9866 3.10189 13.2781 3.22266 13.4931 3.43764C13.7081 3.65262 13.8289 3.94419 13.8289 4.24822L13.8289 17.6787L18.324 12.6547C18.5272 12.4301 18.8111 12.2951 19.1135 12.2791C19.416 12.2632 19.7125 12.3675 19.9382 12.5694C20.164 12.7714 20.3006 13.0544 20.3183 13.3568C20.3361 13.6591 20.2334 13.9562 20.0328 14.1831L13.5369 21.4432C13.4294 21.5637 13.2976 21.6601 13.1503 21.7261C13.0029 21.7921 12.8432 21.8262 12.6818 21.8262C12.5203 21.8262 12.3606 21.7921 12.2133 21.7261C12.0659 21.6601 11.9341 21.5637 11.8266 21.4432L5.3307 14.1831C5.22931 14.0711 5.15108 13.9401 5.10049 13.7977C5.0499 13.6554 5.02796 13.5044 5.03592 13.3535C5.04389 13.2026 5.08161 13.0548 5.14691 12.9185C5.21221 12.7823 5.3038 12.6602 5.41643 12.5595C5.52905 12.4588 5.66047 12.3813 5.80314 12.3315C5.94581 12.2818 6.09691 12.2607 6.24775 12.2696C6.39859 12.2784 6.5462 12.317 6.68208 12.3831C6.81795 12.4492 6.93943 12.5415 7.0395 12.6547L11.5362 17.6787L11.5362 4.24822C11.5362 3.94419 11.657 3.65262 11.8719 3.43764C12.0869 3.22266 12.3785 3.10189 12.6825 3.10189Z" fill="white" fill-opacity="0.2"/>
</svg>
