<svg width="129" height="48" viewBox="0 0 129 48" fill="none" xmlns="http://www.w3.org/2000/svg">
<g clip-path="url(#clip0_29412_1115)">
<path fill-rule="evenodd" clip-rule="evenodd" d="M34.3502 10.1055L23.496 37.9549H13.3009L17.8434 26.4129H17.6396C13.8921 32.7978 8.30076 37.0011 0.333984 37.9549V26.5727C0.333984 26.5727 5.43052 26.1776 8.42663 22.0432H0.333984V10.1057H9.42925V19.9241L9.63339 19.923L13.35 10.1057H20.2286V19.8619L20.4327 19.8614L24.2887 10.1055H34.3502Z" fill="white"/>
<path d="M93.5382 34.8814H96.4673V12.8135H93.5382V34.8814Z" fill="white"/>
<path fill-rule="evenodd" clip-rule="evenodd" d="M77.3899 34.656C78.0266 35.0034 78.6739 35.177 79.3321 35.177C80.4194 35.177 81.3921 34.8297 82.2505 34.135C83.1089 33.4402 83.7741 32.4825 84.2463 31.2621C84.7184 30.0321 84.9544 28.638 84.9544 27.0794C84.9544 25.5209 84.7112 24.1267 84.2248 22.8968C83.7384 21.6669 83.0625 20.714 82.1969 20.038C81.3314 19.3526 80.3478 19.0146 79.2461 19.024C78.5452 19.024 77.8728 19.2024 77.229 19.5592C76.5851 19.9159 76.0487 20.4229 75.6195 21.0801C75.5863 21.1302 75.5542 21.1807 75.5229 21.2317V12.8276H72.5829V34.8814H75.5015L75.4956 32.8211C75.5711 32.9426 75.6518 33.0612 75.7376 33.1772C76.2025 33.8064 76.7533 34.2993 77.3899 34.656ZM80.3942 31.093C79.915 31.4779 79.3678 31.6705 78.7526 31.6705C78.1446 31.6705 77.5866 31.4733 77.0787 31.0789C76.5709 30.6752 76.1667 30.126 75.8663 29.4313C75.573 28.7365 75.4264 27.9479 75.4264 27.0654C75.4192 26.1828 75.5623 25.3942 75.8556 24.6994C76.156 23.9953 76.5601 23.4507 77.068 23.0658C77.5759 22.6715 78.1374 22.479 78.7526 22.4884C79.3678 22.479 79.915 22.6668 80.3942 23.0517C80.8807 23.4273 81.2526 23.9671 81.5102 24.6712C81.7748 25.366 81.9072 26.1641 81.9072 27.0654C81.9072 27.9666 81.7748 28.7647 81.5102 29.4594C81.2526 30.1542 80.8807 30.6987 80.3942 31.093Z" fill="white"/>
<path d="M38.5938 14.1514H41.9414L44.9361 28.5056L48.1219 14.1514H50.9116L54.3666 28.2175L57.2422 14.1514H60.3109L55.7829 34.8814H52.8965L49.3833 21.1398L46.1582 34.8814H43.2397L38.5938 14.1514Z" fill="white"/>
<path fill-rule="evenodd" clip-rule="evenodd" d="M65.2545 35.2475C64.0885 35.2568 63.037 34.9188 62.0999 34.2335C61.1701 33.5388 60.4368 32.5764 59.9003 31.3466C59.371 30.1166 59.1063 28.713 59.1063 27.1357C59.1063 25.6055 59.3782 24.2206 59.9218 22.9813C60.4654 21.742 61.2022 20.775 62.1321 20.0802C63.062 19.3855 64.0992 19.0381 65.2438 19.0381C66.5313 19.0381 67.658 19.4136 68.6237 20.1647C69.5965 20.9158 70.3225 21.9814 70.8018 23.3615C71.2882 24.7323 71.4635 26.3049 71.3276 28.0792H62.1367C62.1624 28.7862 62.2967 29.4294 62.5399 30.0086C62.8117 30.647 63.1908 31.1447 63.6772 31.5014C64.1636 31.8581 64.7073 32.0365 65.3082 32.0365C65.7659 32.0272 66.1915 31.9239 66.585 31.7268C66.9784 31.5203 67.311 31.2432 67.5829 30.8959C67.8618 30.5485 68.0585 30.1542 68.173 29.713H71.2418C71.0558 30.7926 70.6838 31.755 70.1258 32.5999C69.5679 33.4354 68.8668 34.0879 68.0228 34.5574C67.1786 35.0268 66.2559 35.2568 65.2545 35.2475ZM62.5506 24.2065C62.3791 24.5989 62.2604 25.0214 62.1943 25.474H68.2867C68.2425 24.9021 68.108 24.3811 67.8832 23.9108C67.6258 23.3569 67.2753 22.9297 66.8318 22.6292C66.3883 22.3194 65.8876 22.1645 65.3296 22.1645C64.7359 22.1645 64.1959 22.3429 63.7095 22.6996C63.223 23.0564 62.8367 23.5587 62.5506 24.2065Z" fill="white"/>
<path d="M87.1111 19.362C87.1111 18.1039 87.3293 16.9867 87.7657 16.0103C88.202 15.0245 88.8136 14.2593 89.6004 13.7148C90.3944 13.1608 91.3208 12.8745 92.3794 12.8557V16.2779C91.8858 16.2872 91.4639 16.4234 91.1133 16.6863C90.77 16.9397 90.5053 17.3106 90.3193 17.7988C90.148 18.2483 90.0556 18.7693 90.0421 19.362H92.3151V22.6151H90.0403V34.8814H87.1111V22.6151H85.2226V19.362H87.1111Z" fill="white"/>
<path fill-rule="evenodd" clip-rule="evenodd" d="M103.914 35.2194C102.719 35.2194 101.65 34.8766 100.706 34.1913C99.7686 33.4965 99.0318 32.5388 98.4953 31.3184C97.966 30.0884 97.7013 28.6943 97.7013 27.1357C97.7013 25.5679 97.966 24.169 98.4953 22.9391C99.0318 21.6998 99.7686 20.7374 100.706 20.0521C101.65 19.3667 102.719 19.024 103.914 19.024C105.116 19.024 106.189 19.3667 107.133 20.0521C108.084 20.7374 108.825 21.6951 109.354 22.925C109.883 24.1549 110.151 25.5585 110.159 27.1357C110.151 28.6943 109.883 30.0884 109.354 31.3184C108.832 32.5388 108.095 33.4965 107.144 34.1913C106.192 34.8766 105.116 35.2194 103.914 35.2194ZM103.914 31.6846C104.543 31.6846 105.101 31.4968 105.588 31.1212C106.074 30.7363 106.45 30.201 106.714 29.5157C106.979 28.821 107.111 28.0277 107.111 27.1357C107.111 26.2345 106.979 25.4364 106.714 24.7417C106.45 24.0469 106.074 23.5118 105.588 23.1362C105.101 22.7513 104.543 22.5588 103.914 22.5588C103.292 22.5588 102.737 22.7513 102.251 23.1362C101.771 23.5118 101.399 24.0469 101.135 24.7417C100.87 25.4364 100.741 26.2345 100.749 27.1357C100.749 28.0277 100.881 28.821 101.146 29.5157C101.417 30.201 101.789 30.7363 102.262 31.1212C102.741 31.4968 103.292 31.6846 103.914 31.6846Z" fill="white"/>
<path d="M113.324 19.362H110.062L113.592 34.8814H116.446L118.768 24.9692L121.275 34.8814H124.086L127.627 19.362H124.677L122.668 29.0218L120.449 19.362H117.594L115.386 29.2347L113.324 19.362Z" fill="white"/>
</g>
<defs>
<clipPath id="clip0_29412_1115">
<rect width="128" height="48" fill="white" transform="translate(0.333984)"/>
</clipPath>
</defs>
</svg>
